<?xml version="1.0" standalone="no"?>
<!DOCTYPE svg PUBLIC "-//W3C//DTD SVG 20010904//EN"
 "http://www.w3.org/TR/2001/REC-SVG-20010904/DTD/svg10.dtd">
<svg version="1.0" xmlns="http://www.w3.org/2000/svg"
 width="960.000000pt" height="1280.000000pt" viewBox="0 0 960.000000 1280.000000"
 preserveAspectRatio="xMidYMid meet">

<g transform="translate(0.000000,1280.000000) scale(0.100000,-0.100000)"
fill="#000000" stroke="none">
<path d="M5027 12730 c37 -38 182 -186 321 -327 138 -141 252 -258 252 -259 0
-1 14 -16 31 -33 37 -37 34 -53 -13 -66 -20 -5 -39 -13 -42 -16 -3 -3 -8 -43
-10 -88 -3 -74 -1 -83 18 -96 27 -20 32 -19 55 6 11 12 30 27 43 33 21 11 23
18 20 69 -2 31 -1 61 2 66 6 9 148 -132 338 -334 41 -44 105 -111 142 -150 58
-61 66 -74 62 -100 -2 -16 -36 -90 -75 -163 -39 -73 -71 -137 -71 -143 0 -5
-4 -9 -9 -9 -5 0 -11 -8 -14 -17 -3 -10 -20 -40 -36 -68 -31 -52 -48 -81 -97
-175 -16 -30 -32 -56 -36 -58 -5 -2 -8 -10 -8 -18 0 -13 -18 -53 -30 -64 -3
-3 -14 -22 -25 -42 -11 -21 -23 -38 -27 -38 -5 0 -8 -10 -8 -21 0 -18 2 -19
15 -9 8 7 15 21 15 31 0 21 16 34 25 20 9 -16 -75 -142 -92 -139 -9 2 -18 -3
-20 -9 -3 -7 2 -13 11 -13 9 0 16 -4 16 -10 0 -5 -4 -10 -9 -10 -5 0 -11 -8
-15 -17 -3 -10 -23 -48 -43 -85 -21 -37 -54 -99 -75 -137 -20 -38 -48 -87 -62
-110 -14 -22 -26 -44 -26 -48 0 -5 -23 -46 -51 -93 -28 -47 -75 -130 -103
-185 -62 -118 -104 -194 -120 -215 -6 -8 -21 -33 -33 -55 -38 -72 -140 -253
-177 -315 -12 -19 -28 -48 -36 -65 -8 -16 -17 -32 -20 -35 -7 -7 -56 -97 -88
-160 -15 -30 -32 -61 -39 -67 -6 -7 -24 -39 -39 -70 -15 -32 -29 -60 -33 -63
-14 -11 -51 -90 -42 -90 5 0 19 21 32 46 40 79 43 83 59 87 9 2 22 24 30 48 8
24 18 47 23 50 9 7 13 13 61 101 16 29 52 89 81 133 29 44 62 98 73 119 12 22
25 42 29 45 4 3 16 22 26 41 57 112 64 122 70 100 3 -11 10 -20 16 -20 15 0
14 33 -1 48 -8 8 -9 12 -1 12 6 0 13 -5 15 -12 4 -12 88 97 88 114 0 10 12 26
48 64 12 14 22 31 22 39 0 21 23 67 43 87 9 10 17 24 17 32 0 8 6 16 14 19 8
3 30 32 49 65 19 32 46 70 61 85 14 14 26 32 26 40 0 8 7 20 16 28 8 7 13 21
10 32 -2 10 -2 16 1 13 8 -7 53 53 53 71 0 7 13 28 30 46 16 19 27 36 24 39
-2 3 6 12 19 21 12 8 31 33 42 56 10 23 24 41 32 41 14 0 14 1 18 40 1 13 8
26 14 28 6 2 11 15 11 28 0 14 6 24 14 24 7 0 19 14 27 32 7 17 30 49 50 72
32 34 39 38 53 27 14 -12 16 -9 16 22 0 31 4 36 40 51 31 12 40 21 40 40 0 29
88 123 124 132 15 3 29 10 32 15 3 5 41 9 85 9 78 0 79 0 79 25 0 23 4 25 40
25 22 0 40 5 40 11 0 7 17 10 45 7 25 -2 45 0 45 4 0 13 58 9 63 -4 3 -7 6 4
6 25 1 36 2 37 41 37 29 0 40 4 40 15 0 13 19 14 123 10 67 -2 114 -2 105 1
-10 3 -18 9 -18 14 0 16 24 24 67 21 40 -2 43 -1 43 23 0 24 4 26 40 26 l40 0
0 80 0 80 40 0 40 0 0 40 0 40 -40 0 c-40 0 -40 0 -40 39 0 33 -4 40 -22 44
-22 3 -22 4 -4 12 13 6 21 5 24 -3 2 -7 9 -12 17 -12 13 0 41 28 34 35 -3 2
-81 11 -174 20 -94 9 -199 20 -235 25 -36 5 -125 15 -197 21 -129 11 -133 12
-133 35 0 13 9 32 20 42 11 10 20 27 19 38 -4 42 2 54 36 68 33 14 35 17 35
65 0 28 5 51 10 51 6 0 10 21 9 48 0 35 -3 42 -9 27 -5 -11 -9 -16 -9 -11 -1
5 -7 3 -15 -3 -19 -16 -27 0 -20 39 6 26 11 31 29 27 20 -3 23 0 23 32 0 50
-40 115 -115 186 -34 33 -63 67 -63 75 0 27 -30 60 -54 60 -14 0 -38 17 -63
43 -22 23 -60 60 -84 83 -24 22 -53 57 -64 77 -11 20 -25 37 -31 37 -13 0 -84
67 -84 79 0 4 -27 33 -60 65 -32 32 -62 66 -65 77 -6 18 -23 19 -501 19 l-495
0 68 -70z m1613 -1760 c0 -5 -21 -10 -46 -10 -27 0 -43 4 -39 10 3 6 24 10 46
10 21 0 39 -4 39 -10z m-320 -70 c0 -11 -7 -20 -15 -20 -18 0 -19 12 -3 28 16
16 18 15 18 -8z m-1014 -1376 c-10 -14 -20 -23 -23 -21 -2 3 3 17 13 31 9 15
19 24 22 22 2 -3 -3 -17 -12 -32z"/>
<path d="M7280 11460 c0 -5 4 -10 9 -10 6 0 13 5 16 10 3 6 -1 10 -9 10 -9 0
-16 -4 -16 -10z"/>
<path d="M6961 10944 c0 -11 3 -14 6 -6 3 7 2 16 -1 19 -3 4 -6 -2 -5 -13z"/>
<path d="M6240 10810 c0 -5 7 -10 16 -10 8 0 12 5 9 10 -3 6 -10 10 -16 10 -5
0 -9 -4 -9 -10z"/>
<path d="M8167 10686 c-13 -14 -36 -45 -51 -68 l-27 -43 -58 3 c-32 2 -84 -2
-117 -9 -32 -7 -76 -12 -97 -11 -21 1 -52 -5 -67 -13 -36 -19 -40 -19 -40 1 0
8 -5 12 -10 9 -6 -4 -8 -10 -5 -15 3 -4 -6 -15 -20 -24 -23 -15 -25 -15 -25
-1 0 13 -7 11 -33 -9 -39 -30 -47 -32 -47 -11 0 22 -21 18 -27 -6 -4 -12 -11
-18 -20 -15 -8 3 -12 2 -9 -3 3 -5 -3 -20 -14 -32 -17 -21 -19 -21 -13 -4 3
12 -15 -1 -48 -33 -39 -38 -55 -49 -57 -37 -5 24 -22 7 -22 -23 l-1 -27 -14
25 -13 25 -11 -28 c-6 -16 -11 -37 -11 -48 0 -10 -4 -19 -10 -19 -5 0 -10 -6
-10 -14 0 -8 -30 -29 -67 -47 -38 -19 -72 -40 -76 -46 -4 -7 -15 -13 -23 -13
-8 0 -12 5 -9 10 4 6 -5 10 -19 10 -16 0 -26 -6 -26 -15 0 -8 -8 -15 -18 -15
-10 0 -51 -11 -91 -25 -55 -20 -83 -37 -120 -74 -27 -27 -68 -59 -92 -70 -66
-32 -89 -47 -83 -53 3 -4 -4 -9 -15 -13 -12 -3 -21 -10 -21 -14 0 -8 -45 -31
-61 -31 -6 0 -7 5 -3 12 5 7 2 9 -8 6 -8 -3 -38 0 -68 8 -35 9 -57 10 -65 4
-15 -13 -25 -2 -25 27 0 13 -6 23 -14 23 -10 0 -12 -13 -8 -52 l5 -53 -22 28
c-13 15 -26 27 -31 27 -8 0 -30 -61 -30 -82 0 -14 47 -8 60 7 26 31 20 6 -11
-54 -24 -45 -29 -65 -21 -73 15 -15 69 40 77 78 15 76 18 79 63 76 27 -1 42 2
42 9 0 7 3 10 6 6 3 -3 -3 -18 -14 -34 -20 -29 -37 -72 -34 -85 1 -5 -2 -8 -7
-8 -4 0 -19 -11 -33 -25 -13 -13 -46 -29 -73 -35 -58 -13 -68 -4 -59 53 7 46
-9 49 -26 5 -7 -18 -22 -43 -33 -55 -24 -27 -16 -42 19 -35 18 3 30 0 36 -12
5 -9 13 -14 19 -11 5 3 16 2 25 -3 13 -7 13 -10 1 -20 -10 -9 -27 -9 -68 0
-59 12 -113 5 -106 -15 2 -7 15 -11 28 -11 34 3 119 -16 119 -26 0 -4 -30 -34
-67 -66 -66 -59 -101 -116 -117 -191 -9 -40 -19 -47 -46 -33 -25 14 -26 26 0
33 18 5 20 14 20 76 0 39 -4 71 -9 71 -13 0 -104 -131 -106 -151 0 -9 -23 -38
-51 -66 -52 -53 -84 -118 -124 -253 -12 -41 -30 -87 -40 -101 -37 -53 -126
-301 -114 -320 2 -4 -1 -27 -7 -51 -23 -91 -22 -126 5 -152 22 -19 24 -27 17
-54 -5 -17 -7 -33 -4 -35 2 -3 -7 -23 -21 -46 -14 -22 -26 -45 -26 -50 0 -5
-6 -22 -14 -38 -35 -70 -58 -132 -62 -168 -6 -57 -8 -66 -23 -107 -7 -21 -10
-46 -8 -55 4 -14 5 -13 6 5 1 24 21 31 21 7 0 -8 3 -15 6 -15 10 0 48 23 68
41 11 11 23 19 28 19 4 0 8 5 8 10 0 6 -9 10 -20 10 -11 0 -20 -4 -20 -10 0
-5 -9 -10 -19 -10 -11 0 -23 -4 -26 -10 -3 -5 -10 -10 -16 -10 -18 0 -9 16 21
38 25 19 28 20 23 5 -7 -19 0 -15 61 39 10 10 24 14 30 11 6 -4 5 0 -2 9 -15
18 -7 64 15 90 13 14 12 17 -4 21 -17 4 -17 5 1 6 10 0 24 7 30 15 6 7 23 16
39 20 22 5 27 3 27 -13 0 -23 -30 -52 -31 -30 0 8 -4 5 -8 -6 -6 -13 -4 -23 5
-28 18 -11 18 -47 0 -47 -8 0 -17 4 -20 9 -4 5 -17 4 -31 -2 -28 -13 -33 -27
-10 -27 9 0 21 -11 27 -25 6 -14 17 -25 25 -25 19 0 16 -40 -4 -56 -16 -12
-16 -15 -3 -23 12 -8 12 -12 -3 -29 -21 -23 -22 -38 -2 -46 17 -6 21 -46 4
-46 -8 0 -8 -4 0 -13 8 -10 7 -17 -1 -25 -15 -15 -14 -108 2 -127 9 -11 15
-12 24 -2 18 17 29 123 16 147 -7 14 -7 20 0 20 5 0 10 7 10 16 0 9 15 45 34
80 19 35 31 66 25 69 -12 8 -12 52 0 60 5 3 15 31 22 63 7 31 23 70 36 85 22
27 33 74 14 63 -4 -3 -8 19 -7 49 0 30 3 55 7 55 4 0 5 8 2 19 -4 15 3 19 36
25 41 6 51 22 30 43 -6 6 -8 17 -4 23 6 9 10 9 16 -1 6 -10 9 -8 9 7 0 12 7
27 15 34 8 7 12 16 9 21 -3 5 1 9 10 9 9 0 17 15 21 40 4 22 10 40 15 40 4 0
11 12 15 27 3 16 30 49 58 76 32 29 47 50 40 53 -10 4 -9 11 2 28 8 12 16 38
18 56 2 32 4 34 44 35 23 1 47 6 55 12 7 6 31 14 52 17 27 5 35 10 26 16 -20
12 -4 40 24 40 13 0 26 7 30 15 3 8 14 15 25 15 33 0 51 11 51 31 0 10 7 19
15 19 8 0 24 5 35 12 16 10 23 8 44 -15 14 -15 32 -27 40 -27 10 0 13 -6 9
-16 -5 -13 -7 -13 -14 -2 -6 9 -9 7 -9 -9 0 -12 -5 -25 -11 -29 -42 -25 107
-227 221 -299 54 -34 148 -65 198 -65 36 0 37 0 12 13 -14 7 -45 19 -70 27
-25 7 -59 24 -77 37 -17 13 -36 23 -42 23 -6 0 -11 6 -11 14 0 8 -10 23 -22
33 -59 47 -59 117 0 81 19 -13 26 -25 25 -43 -2 -22 1 -25 18 -20 12 4 21 1
25 -9 9 -24 27 -19 21 5 -3 13 -1 19 6 16 12 -4 13 -8 16 -48 1 -12 5 -17 12
-13 6 3 15 1 19 -7 7 -10 11 -10 24 0 13 11 21 9 47 -12 l32 -25 33 20 c19 11
42 31 52 46 l19 25 12 -36 c20 -59 12 -82 -26 -82 -18 0 -33 -3 -33 -7 0 -13
53 -48 74 -48 11 -1 32 -7 46 -15 34 -20 100 -20 100 0 0 17 16 20 25 4 9 -13
-24 -51 -37 -43 -6 4 -21 0 -35 -7 -19 -10 -28 -10 -43 -1 -11 7 -32 11 -47
11 l-28 -1 30 -7 c30 -7 30 -7 8 -19 -35 -20 -29 -42 11 -42 19 0 38 -5 41
-10 4 -6 13 -7 24 -1 9 5 43 12 74 15 51 4 57 2 57 -14 0 -23 20 -18 66 17 17
13 37 23 45 23 20 0 68 57 75 89 4 14 13 36 21 49 12 19 12 32 3 70 -6 26 -12
58 -14 72 -1 14 -6 34 -9 45 -4 12 3 39 18 69 28 55 31 72 13 78 -7 3 -6 7 5
11 14 5 17 0 18 -26 l1 -32 13 40 c13 39 14 39 15 10 1 -28 2 -29 15 -12 18
24 9 121 -15 162 -10 17 -32 65 -50 108 -19 46 -48 95 -70 118 -20 21 -32 41
-26 43 6 2 4 5 -4 5 -9 1 -37 21 -63 46 -27 25 -52 45 -58 45 -5 0 -9 6 -9 14
0 7 -11 21 -25 30 -14 9 -23 21 -20 26 4 6 0 10 -8 10 -8 0 -22 9 -32 20 -12
13 -25 18 -38 14 -11 -4 -23 -1 -28 7 -13 21 -11 41 4 33 6 -4 4 2 -7 14 -26
30 -7 52 44 52 21 0 40 5 42 10 2 7 14 7 35 -1 25 -8 35 -8 46 2 11 11 10 16
-5 31 -33 33 -19 53 35 51 38 -2 47 0 47 13 0 16 11 16 54 -1 16 -7 17 -6 6
14 -13 25 -9 33 17 36 44 5 82 18 77 26 -3 5 3 12 12 16 10 3 25 14 35 22 9 9
29 24 43 34 33 23 33 45 2 49 -22 3 -23 5 -10 22 11 16 18 17 37 9 14 -6 30
-7 37 -3 8 5 22 4 33 -2 13 -7 28 -6 48 2 32 14 33 29 4 47 -18 11 -15 12 23
13 30 0 44 -5 49 -16 4 -12 7 -13 14 -3 6 11 16 11 46 2 72 -21 177 -63 193
-78 9 -8 24 -15 33 -15 9 0 19 -4 22 -10 3 -5 17 -10 30 -10 13 0 49 -9 80
-21 40 -15 55 -26 55 -39 0 -10 5 -22 10 -25 6 -3 10 -2 10 4 0 17 26 2 72
-40 24 -21 51 -39 61 -39 17 0 77 -56 77 -72 0 -5 5 -8 10 -8 6 0 32 -21 58
-47 26 -27 59 -54 75 -60 15 -7 27 -17 27 -23 0 -5 4 -10 9 -10 6 0 41 -31 78
-68 38 -37 78 -74 89 -82 47 -34 139 -179 196 -310 22 -49 59 -210 52 -221 -3
-6 0 -16 6 -24 8 -10 12 -60 11 -150 0 -107 -5 -150 -21 -205 -11 -39 -25 -70
-30 -70 -4 0 -12 -15 -15 -32 -4 -18 -23 -63 -41 -100 -19 -37 -34 -73 -34
-80 -1 -28 -50 -111 -71 -122 -16 -8 -26 -24 -31 -51 -14 -83 -127 -272 -254
-427 -22 -26 -95 -116 -164 -200 -68 -84 -139 -169 -157 -188 -55 -60 -122
-145 -118 -149 3 -2 34 22 71 53 36 31 72 56 81 56 21 0 66 37 53 45 -20 12
-9 30 35 58 24 16 60 49 79 75 19 26 74 84 123 130 48 46 111 106 140 135 28
29 55 55 60 59 67 61 181 185 212 231 51 77 72 106 101 142 18 22 42 57 53 78
72 127 89 158 118 217 18 36 43 82 56 102 13 21 23 46 23 57 0 10 7 24 15 31
12 10 14 79 14 482 -1 449 -2 471 -20 489 -10 10 -20 33 -20 49 -1 17 -2 35
-3 42 -1 7 -11 23 -23 37 -13 13 -23 31 -23 40 0 26 -24 71 -37 71 -16 0 -17
22 -1 38 15 15 9 21 -39 37 -21 7 -43 22 -49 34 -6 11 -25 33 -44 49 -19 17
-30 34 -26 41 14 22 -5 50 -50 71 -24 12 -51 29 -60 37 -8 8 -22 16 -32 18 -9
1 -16 9 -14 17 1 9 -5 21 -13 28 -8 7 -15 21 -15 31 0 11 -7 19 -15 19 -8 0
-22 11 -31 26 -10 14 -23 23 -31 20 -8 -3 -30 1 -50 9 -19 8 -49 15 -64 15
-19 0 -42 11 -65 33 -20 17 -42 36 -50 40 -8 4 -14 16 -14 25 0 10 -5 23 -12
30 -14 14 -3 37 57 127 54 80 61 93 86 144 28 59 18 66 -106 80 -55 6 -161 19
-235 30 -74 10 -182 24 -240 30 -58 7 -119 14 -137 17 -26 5 -37 1 -56 -20z
m308 -115 c-3 -6 -11 -11 -17 -11 -6 0 -6 6 2 15 14 17 26 13 15 -4z m-755
-690 c0 -14 -18 -23 -30 -16 -6 4 -8 11 -5 16 8 12 35 12 35 0z m-595 -631 c4
0 14 -8 21 -17 12 -17 13 -16 14 7 1 25 1 25 31 -8 16 -18 34 -30 38 -27 5 3
15 -1 23 -8 7 -7 25 -18 41 -24 15 -7 27 -16 27 -21 0 -5 14 -24 30 -42 17
-18 30 -43 30 -56 0 -12 6 -27 14 -33 19 -16 22 -97 7 -221 -5 -41 -5 -82 -1
-90 10 -20 -2 -92 -17 -97 -6 -2 -19 12 -28 31 -10 20 -21 36 -25 36 -4 0 -29
38 -55 85 -27 47 -52 85 -57 85 -7 0 28 -70 53 -105 3 -5 10 -25 14 -44 7 -31
5 -33 -14 -28 -11 3 -24 1 -27 -4 -8 -14 -24 -11 -24 5 0 8 -7 17 -16 20 -10
4 -14 14 -11 25 3 13 1 18 -8 14 -15 -5 -9 33 6 43 5 3 9 10 9 15 0 6 -14 1
-30 -11 l-31 -22 -34 24 c-24 16 -33 28 -29 41 6 19 -12 24 -19 5 -3 -7 -6 -1
-6 15 -1 28 -25 38 -35 15 -3 -7 -3 1 1 17 3 17 14 36 24 43 15 12 16 17 6 35
-24 44 -37 54 -62 49 -14 -2 -25 0 -25 6 0 5 -13 12 -30 15 -33 7 -62 36 -71
70 -4 17 -12 22 -33 20 -26 -2 -28 0 -21 25 3 15 9 39 12 53 4 20 10 25 24 22
12 -4 21 1 26 13 9 21 24 27 68 28 17 1 41 7 54 14 12 8 31 12 41 9 10 -2 24
-1 31 4 9 5 21 1 34 -11 12 -11 25 -20 30 -20z m-88 -412 c-3 -8 -6 -5 -6 6
-1 11 2 17 5 13 3 -3 4 -12 1 -19z m-1201 -16 c-11 -34 -84 -124 -91 -112 -4
6 7 29 24 50 17 21 31 42 31 46 0 11 32 45 38 40 2 -3 1 -13 -2 -24z m1798
-36 c-5 -14 -34 -31 -34 -20 0 8 24 33 32 34 4 0 5 -6 2 -14z m-704 -55 c0
-26 -16 -35 -24 -15 -10 25 -7 34 9 34 8 0 15 -9 15 -19z m185 -21 c8 -13 -5
-13 -25 0 -13 8 -13 10 2 10 9 0 20 -4 23 -10z m-1382 -30 c-3 -11 -7 -20 -9
-20 -2 0 -4 9 -4 20 0 11 4 20 9 20 5 0 7 -9 4 -20z m1404 -5 c5 -4 3 -5 -4
-2 -6 4 -13 2 -15 -4 -2 -7 -9 -5 -17 5 -12 14 -11 16 7 13 12 -2 25 -7 29
-12z m-77 -56 c0 -5 -4 -9 -10 -9 -5 0 -10 7 -10 16 0 8 5 12 10 9 6 -3 10
-10 10 -16z m-1298 -31 c-7 -7 -12 -8 -12 -2 0 14 12 26 19 19 2 -3 -1 -11 -7
-17z m1458 -87 c0 -5 -7 -11 -15 -15 -15 -5 -20 5 -8 17 9 10 23 9 23 -2z
m165 -11 c3 -5 -1 -10 -10 -10 -9 0 -13 5 -10 10 3 6 8 10 10 10 2 0 7 -4 10
-10z m-1540 -333 c-8 -30 -21 -37 -58 -30 -22 4 -25 8 -16 19 6 8 8 14 3 14
-5 0 -2 4 6 10 9 6 17 5 22 -3 5 -9 12 -7 25 5 21 22 26 18 18 -15z m-85 -62
c-7 -8 -20 -15 -29 -15 -12 1 -11 5 8 21 26 22 41 18 21 -6z"/>
<path d="M5786 10581 c-4 -7 -5 -15 -2 -18 9 -9 19 4 14 18 -4 11 -6 11 -12 0z"/>
<path d="M7170 10257 c0 -26 4 -47 9 -47 8 0 3 79 -5 89 -2 2 -4 -17 -4 -42z"/>
<path d="M6561 10223 c-27 -22 -42 -103 -19 -103 21 0 58 46 58 73 0 40 -14
50 -39 30z"/>
<path d="M6785 10164 c-10 -16 -22 -23 -32 -20 -9 4 -22 1 -29 -5 -14 -11 -16
-9 -18 21 -3 46 -92 1 -119 -61 -12 -28 -21 -36 -35 -32 -23 6 -48 -29 -57
-81 -8 -43 3 -46 46 -15 28 19 31 20 48 5 42 -38 165 -5 231 63 44 44 86 124
74 142 -3 5 -25 9 -48 9 -36 0 -47 -5 -61 -26z m-151 -79 c5 -15 -12 -55 -24
-55 -3 0 -4 16 -2 35 4 37 16 46 26 20z m57 -38 c-13 -13 -26 -3 -16 12 3 6
11 8 17 5 6 -4 6 -10 -1 -17z m-141 -41 c0 -3 -4 -8 -10 -11 -5 -3 -10 -1 -10
4 0 6 5 11 10 11 6 0 10 -2 10 -4z"/>
<path d="M6432 9988 c-13 -13 -17 -58 -4 -58 19 1 52 39 46 54 -7 19 -25 21
-42 4z"/>
<path d="M5237 9393 c-10 -9 -9 -23 2 -23 5 0 11 7 15 15 5 15 -5 20 -17 8z"/>
<path d="M7741 8914 c0 -11 3 -14 6 -6 3 7 2 16 -1 19 -3 4 -6 -2 -5 -13z"/>
<path d="M7650 8726 c0 -2 9 -6 20 -9 11 -3 18 -1 14 4 -5 9 -34 13 -34 5z"/>
<path d="M4743 8642 c-3 -12 -9 -22 -13 -22 -4 0 -13 -13 -20 -30 -7 -16 -16
-30 -21 -30 -5 0 -9 -8 -9 -17 0 -14 3 -14 20 5 11 12 20 26 20 32 0 6 10 24
22 40 12 16 18 33 14 37 -4 4 -9 -3 -13 -15z"/>
<path d="M4654 8496 c-9 -19 -9 -23 1 -19 14 5 28 43 17 43 -4 0 -12 -11 -18
-24z"/>
<path d="M4607 8410 c-30 -61 -30 -80 -1 -23 10 21 23 41 28 44 5 4 6 13 4 20
-3 8 -17 -11 -31 -41z"/>
<path d="M7110 8450 c8 -5 20 -10 25 -10 6 0 3 5 -5 10 -8 5 -19 10 -25 10 -5
0 -3 -5 5 -10z"/>
<path d="M8224 8388 c-3 -5 -16 -8 -30 -8 -15 0 -23 -4 -19 -11 4 -6 -1 -17
-11 -25 -18 -13 -18 -14 1 -7 11 3 25 10 32 15 7 6 17 7 24 3 8 -6 7 -10 -2
-16 -10 -6 -7 -9 11 -10 22 0 21 -2 -10 -14 -24 -9 -29 -14 -15 -14 17 -1 18
-3 5 -12 -11 -8 -12 -12 -2 -16 7 -2 18 -10 25 -17 7 -7 18 -11 25 -8 7 2 10
-2 6 -12 -3 -8 4 -29 16 -45 18 -26 25 -29 52 -24 20 4 29 2 25 -4 -4 -6 19
-17 53 -26 64 -18 137 -63 160 -98 22 -34 129 -139 141 -139 6 0 8 -9 4 -19
-3 -11 1 -26 10 -35 10 -9 12 -16 5 -16 -13 0 -3 -43 11 -48 5 -2 9 -19 9 -37
0 -61 9 -68 41 -32 16 17 27 37 24 44 -2 7 3 13 11 13 13 0 15 7 9 38 -4 20
-9 60 -11 87 -8 110 -58 244 -92 245 -7 0 -15 14 -19 30 -3 17 -8 28 -11 26
-2 -3 -18 4 -33 15 -16 11 -29 17 -29 12 0 -4 -7 2 -15 13 -8 12 -28 27 -45
34 -16 7 -30 15 -30 19 0 12 -94 77 -128 89 -18 6 -31 8 -28 4 2 -4 -13 -7
-35 -7 -21 0 -39 3 -39 6 0 10 -91 16 -96 7z m513 -300 c-3 -8 -6 -5 -6 6 -1
11 2 17 5 13 3 -3 4 -12 1 -19z"/>
<path d="M6036 8352 c-3 -6 -1 -14 5 -17 15 -10 25 3 12 16 -7 7 -13 7 -17 1z"/>
<path d="M4556 8325 c-9 -26 -7 -32 5 -12 6 10 9 21 6 23 -2 3 -7 -2 -11 -11z"/>
<path d="M7352 8255 c-11 -12 -10 -15 3 -15 22 0 19 -13 -10 -40 -14 -13 -25
-20 -25 -15 0 5 -9 -1 -20 -13 -11 -12 -20 -25 -20 -30 0 -11 -106 -23 -135
-17 -16 4 -25 -5 -41 -40 -22 -48 -16 -59 26 -48 20 5 22 3 18 -19 -5 -26 -4
-26 49 -24 34 1 58 8 63 16 13 20 3 30 -31 30 -22 0 -29 5 -29 20 0 15 -7 20
-27 21 l-28 0 25 10 c17 7 26 7 28 0 2 -6 10 -11 18 -11 7 0 11 6 8 14 -4 11
4 14 38 13 81 -3 152 54 160 128 3 27 0 30 -27 32 -17 2 -36 -4 -43 -12z"/>
<path d="M5968 8243 c7 -3 16 -2 19 1 4 3 -2 6 -13 5 -11 0 -14 -3 -6 -6z"/>
<path d="M5940 8180 c0 -5 9 -10 20 -10 11 0 20 5 20 10 0 6 -9 10 -20 10 -11
0 -20 -4 -20 -10z"/>
<path d="M8110 8175 c-11 -13 -8 -15 19 -15 33 0 42 14 15 24 -21 8 -20 8 -34
-9z"/>
<path d="M7002 8119 c-13 -5 -30 -16 -38 -24 -14 -13 -13 -15 10 -15 14 0 28
5 31 10 10 17 48 12 41 -5 -3 -8 -1 -15 5 -15 5 0 12 7 15 15 3 8 14 17 25 20
11 4 17 11 14 16 -8 11 -73 11 -103 -2z"/>
<path d="M7985 8100 c7 -22 -25 -41 -102 -60 -52 -13 -53 -22 -14 -105 26 -54
61 -100 61 -80 0 5 9 0 20 -10 19 -17 20 -17 20 -1 0 10 -8 31 -17 48 -17 28
-17 30 1 44 22 16 54 18 74 6 10 -7 9 -14 -5 -33 -27 -36 -43 -67 -43 -81 1
-7 35 -41 77 -75 l76 -62 39 22 c22 12 44 30 50 41 10 19 11 19 24 1 16 -22
18 -61 4 -70 -5 -3 -25 -6 -44 -7 -27 -1 -33 -5 -29 -17 9 -25 45 -61 55 -55
5 3 15 0 24 -6 8 -7 44 -27 81 -46 52 -25 71 -30 86 -23 29 16 12 67 -34 107
-36 31 -51 62 -30 62 5 0 17 3 27 7 11 4 15 3 10 -5 -3 -6 -2 -13 3 -16 10 -6
25 43 17 52 -3 3 -17 0 -31 -6 -31 -14 -58 -16 -51 -3 3 5 -1 12 -10 15 -9 4
-14 9 -11 12 3 3 -4 15 -15 26 -18 18 -18 21 -4 43 19 29 21 41 4 27 -14 -11
-49 -2 -50 13 0 6 -4 9 -9 8 -5 -2 -9 4 -9 13 0 9 -5 12 -11 8 -9 -5 -10 1 -5
21 6 25 5 27 -8 16 -14 -12 -16 -10 -16 10 0 22 0 22 -15 3 -14 -18 -14 -18
-15 4 0 13 -4 21 -9 18 -11 -7 -21 18 -20 47 1 20 2 20 9 -3 8 -24 8 -24 9 -3
l1 23 50 -19 c27 -11 47 -15 44 -9 -9 15 -111 58 -137 58 -12 0 -35 7 -51 15
-15 8 -35 15 -42 15 -8 0 -14 7 -14 15 0 8 -5 15 -11 15 -6 0 -8 -9 -4 -20z
m-89 -177 c-11 -11 -19 6 -11 24 8 17 8 17 12 0 3 -10 2 -21 -1 -24z m201
-145 c-3 -8 -6 -5 -6 6 -1 11 2 17 5 13 3 -3 4 -12 1 -19z"/>
<path d="M6784 8067 c-3 -8 -23 -27 -44 -43 -22 -16 -40 -33 -40 -39 0 -5 -17
-28 -38 -50 -40 -44 -57 -67 -72 -103 -6 -15 -14 -20 -22 -15 -7 4 -21 6 -30
5 -23 -4 -23 6 -1 30 15 17 15 20 3 28 -27 17 -37 10 -44 -30 -3 -22 -12 -40
-18 -40 -9 0 -9 -3 0 -12 8 -8 15 -8 27 2 12 10 15 10 15 -3 0 -9 -5 -19 -11
-22 -6 -4 1 -13 16 -21 41 -21 57 -18 51 9 -5 19 -5 19 6 -3 17 -33 28 -41 58
-37 14 2 19 2 13 0 -7 -3 -13 -10 -13 -18 0 -15 44 -29 48 -15 2 6 10 10 17
10 7 0 15 5 17 12 3 7 12 9 22 5 9 -4 14 -12 11 -18 -4 -6 -13 -8 -21 -5 -8 3
-17 -1 -21 -10 -8 -22 4 -29 23 -13 14 11 17 10 25 -4 6 -9 21 -17 34 -17 18
0 25 -5 25 -20 0 -22 16 -27 22 -8 3 8 21 3 58 -15 30 -15 60 -27 67 -27 7 0
13 -4 13 -10 0 -5 6 -10 13 -10 6 0 23 -9 37 -20 14 -11 35 -20 47 -20 21 0
22 3 16 68 -3 37 -12 80 -20 96 -31 61 -132 131 -233 163 -30 9 -58 22 -62 27
-4 6 -5 29 -2 51 3 22 7 50 8 63 2 13 10 32 19 43 9 10 17 26 17 34 0 19 -29
20 -36 2z m-164 -257 c0 -5 -4 -10 -10 -10 -5 0 -10 5 -10 10 0 6 5 10 10 10
6 0 10 -4 10 -10z"/>
<path d="M6195 8009 c-23 -11 -51 -36 -64 -55 -13 -19 -30 -34 -37 -34 -8 0
-15 -6 -15 -12 -1 -15 -5 -31 -8 -38 -2 -3 -4 -14 -6 -24 -2 -11 -6 -30 -9
-42 -7 -28 17 -54 49 -54 34 0 55 -10 55 -26 0 -8 9 -14 20 -14 11 0 23 -8 26
-17 3 -10 14 -35 25 -55 11 -21 15 -38 9 -38 -5 0 -10 -7 -10 -15 0 -8 6 -14
13 -12 6 1 11 -4 9 -12 -1 -7 3 -19 9 -27 9 -11 8 -14 -2 -14 -9 -1 -8 -4 4
-11 12 -7 17 -21 15 -45 -1 -24 4 -38 17 -48 11 -8 23 -13 26 -10 3 2 4 -8 1
-21 -4 -21 -1 -25 21 -25 14 0 28 -6 31 -12 3 -10 9 -8 19 5 19 23 59 22 88
-4 13 -11 36 -23 52 -26 15 -3 34 -15 42 -26 14 -20 15 -20 35 -2 23 21 18 34
-6 14 -14 -12 -20 -9 -45 19 -36 40 -37 66 -3 88 36 24 76 9 89 -34 6 -22 15
-32 25 -30 26 5 126 -90 122 -115 -3 -18 -1 -19 11 -9 12 10 21 9 46 -5 17
-10 31 -21 31 -25 0 -5 5 -8 11 -8 6 0 23 -8 37 -19 27 -18 82 -36 82 -26 0 3
-25 16 -55 30 -30 13 -55 28 -55 33 0 5 -10 14 -23 21 -13 7 -31 25 -40 40
-25 42 -100 112 -114 106 -7 -2 -13 0 -13 6 0 12 -49 59 -61 59 -5 0 -9 15 -9
34 0 21 -5 33 -12 32 -7 0 -14 4 -16 9 -5 18 -67 76 -97 92 -16 9 -32 19 -35
23 -3 4 -29 20 -58 35 -29 15 -56 34 -61 43 -5 10 -25 17 -46 19 -21 1 -54 11
-74 21 -99 52 -99 52 -94 72 3 11 9 17 14 14 5 -3 9 2 9 10 0 20 13 20 53 0
21 -11 28 -12 20 -3 -19 19 -16 39 6 39 23 0 44 24 47 56 2 17 -2 24 -16 24
-12 0 -20 -10 -24 -35 -8 -41 -40 -49 -49 -13 -7 26 -1 37 27 48 19 8 18 9 -8
9 -28 1 -29 1 -11 21 10 11 24 20 31 20 7 0 16 5 19 10 10 17 -28 11 -70 -11z
m-65 -117 c0 -13 -12 -22 -22 -16 -10 6 -1 24 13 24 5 0 9 -4 9 -8z m-30 -122
c0 -5 -4 -10 -10 -10 -5 0 -10 5 -10 10 0 6 5 10 10 10 6 0 10 -4 10 -10z
m418 -308 c5 -32 -15 -54 -38 -42 -22 12 -31 45 -16 60 18 18 51 7 54 -18z
m-153 -21 c-3 -5 0 -13 6 -17 6 -3 15 0 20 7 5 8 9 9 9 3 0 -6 -7 -17 -16 -24
-12 -11 -18 -10 -32 4 -15 15 -15 18 -2 26 19 12 23 12 15 1z"/>
<path d="M8260 7986 c0 -3 9 -10 20 -16 11 -6 20 -8 20 -6 0 3 -9 10 -20 16
-11 6 -20 8 -20 6z"/>
<path d="M6317 7909 c3 -10 9 -16 14 -13 13 8 11 21 -5 27 -10 4 -12 0 -9 -14z"/>
<path d="M4280 7895 c0 -8 2 -15 4 -15 2 0 11 -3 20 -6 12 -4 16 0 16 15 0 14
-6 21 -20 21 -11 0 -20 -7 -20 -15z"/>
<path d="M6360 7860 c0 -11 7 -20 15 -20 17 0 18 2 9 24 -9 23 -24 20 -24 -4z"/>
<path d="M6410 7846 c0 -2 7 -6 15 -10 8 -3 15 -1 15 4 0 6 -7 10 -15 10 -8 0
-15 -2 -15 -4z"/>
<path d="M5501 7737 c0 -12 4 -30 7 -40 7 -15 10 -16 26 -4 18 13 17 15 -8 40
-25 26 -26 26 -25 4z"/>
<path d="M5488 7674 c-5 -4 -8 -23 -8 -43 1 -30 2 -33 11 -18 11 19 8 73 -3
61z"/>
<path d="M5550 7660 c0 -11 5 -20 10 -20 6 0 10 9 10 20 0 11 -4 20 -10 20 -5
0 -10 -9 -10 -20z"/>
<path d="M8151 7654 c0 -11 3 -14 6 -6 3 7 2 16 -1 19 -3 4 -6 -2 -5 -13z"/>
<path d="M8410 7660 c0 -5 5 -10 10 -10 6 0 10 5 10 10 0 6 -4 10 -10 10 -5 0
-10 -4 -10 -10z"/>
<path d="M5659 7462 c-19 -13 -20 -16 -5 -24 10 -6 28 -2 52 10 l37 19 -31 5
c-19 3 -41 -1 -53 -10z"/>
<path d="M7343 7455 c15 -13 27 -32 27 -43 0 -10 5 -23 12 -30 6 -6 8 -15 3
-19 -4 -5 -10 -2 -12 5 -6 15 -29 16 -38 2 -9 -14 11 -38 47 -56 25 -13 29
-13 48 6 27 27 26 35 -11 92 -33 51 -55 68 -86 68 -15 -1 -13 -5 10 -25z"/>
<path d="M5410 7302 c-61 -128 -86 -169 -135 -222 -33 -36 -85 -94 -114 -130
-30 -36 -59 -70 -65 -75 -6 -6 -16 -19 -23 -30 -6 -11 -16 -19 -22 -17 -6 1
-11 -2 -11 -8 0 -5 -17 -25 -37 -44 -21 -19 -35 -38 -31 -42 4 -4 14 -1 23 6
20 17 30 7 12 -12 -8 -7 -20 -31 -27 -53 -7 -22 -36 -77 -64 -123 -28 -45 -60
-99 -72 -118 -14 -23 -23 -60 -27 -107 -3 -40 -12 -91 -21 -114 -8 -23 -11
-45 -7 -47 4 -3 18 -31 29 -63 12 -32 41 -85 65 -118 155 -212 509 -474 642
-473 21 0 6 7 -48 25 -42 13 -75 29 -71 34 3 5 -3 9 -13 10 -15 0 -14 2 5 11
28 14 28 22 -2 61 -13 18 -27 49 -30 70 -4 20 -11 37 -17 37 -5 0 -16 18 -25
40 -9 21 -24 42 -34 45 -11 3 -21 20 -24 40 -4 18 -10 35 -14 37 -15 7 -52 96
-64 156 -11 58 -14 62 -40 62 -15 0 -28 5 -28 11 0 7 -10 9 -24 7 -17 -3 -23
-1 -19 8 2 7 -5 19 -16 26 -12 7 -21 20 -21 30 0 9 -5 18 -11 20 -8 3 -6 10 5
20 9 9 16 26 16 37 0 18 6 21 45 21 38 0 45 3 45 20 0 11 4 20 10 20 5 0 16
16 24 35 17 40 42 45 57 12 9 -19 7 -30 -10 -58 -22 -36 -27 -74 -11 -84 6 -3
10 -28 10 -56 0 -28 5 -49 11 -49 6 0 8 -8 4 -19 -4 -14 1 -21 25 -29 16 -6
34 -21 39 -34 5 -13 21 -30 35 -37 14 -8 26 -19 26 -26 0 -11 51 -45 68 -45 5
0 10 18 10 40 0 22 -3 40 -9 40 -5 0 -9 -4 -9 -10 0 -5 -6 -10 -13 -10 -22 0
-67 66 -67 99 0 11 6 22 13 24 7 3 5 6 -5 6 -24 1 -26 81 -3 81 11 0 15 11 15
40 0 29 -4 40 -15 40 -11 0 -15 11 -15 40 0 22 -1 43 -2 47 -2 4 12 8 31 9 25
1 35 -3 38 -17 6 -20 23 -27 23 -9 0 6 6 10 14 10 19 0 30 32 14 41 -17 11 -5
21 16 13 19 -7 22 -54 4 -55 -7 0 3 -8 22 -17 19 -8 40 -15 47 -14 6 2 14 -2
18 -8 11 -18 25 -11 25 14 0 19 -9 27 -41 40 -34 14 -39 19 -29 31 10 12 9 15
-4 15 -19 0 -19 2 -4 35 15 33 26 32 21 -2 -5 -33 27 -73 58 -73 11 0 17 -4
14 -10 -3 -5 -2 -10 4 -10 6 0 13 11 17 25 5 19 11 24 25 20 12 -4 21 1 29 15
12 23 4 25 -34 10 -20 -7 -26 -6 -26 4 0 16 43 27 62 15 7 -5 16 -3 21 4 4 7
5 -1 1 -17 -5 -21 -4 -27 5 -22 7 5 11 -1 11 -14 0 -13 -5 -20 -12 -18 -7 3
-18 -6 -25 -20 -16 -30 -1 -48 51 -57 32 -6 36 -11 36 -38 0 -28 1 -29 18 -14
10 9 27 14 38 11 22 -6 34 16 34 64 0 12 9 31 20 42 11 11 20 32 20 48 1 26 1
26 15 8 10 -14 12 -22 4 -26 -11 -8 -17 -30 -18 -72 -1 -17 -7 -28 -15 -28
-21 0 -27 -26 -11 -47 11 -14 14 -15 15 -3 0 13 1 13 10 0 15 -24 12 -53 -5
-46 -9 3 -15 0 -15 -9 0 -8 5 -15 10 -15 6 0 15 -10 19 -22 9 -23 9 -23 16 5
8 29 32 36 54 15 10 -11 15 -10 25 4 8 11 20 15 34 11 22 -5 52 11 52 29 0 6
-11 7 -25 4 -23 -6 -25 -3 -25 25 0 20 -4 29 -12 26 -8 -2 -12 -18 -10 -37 2
-29 1 -31 -14 -19 -12 10 -15 24 -11 56 3 30 1 43 -8 43 -6 0 -20 9 -30 20
-10 11 -22 17 -28 13 -5 -3 1 8 14 26 28 37 33 39 25 6 -5 -19 -3 -23 9 -19 8
4 17 -1 21 -10 3 -9 12 -16 20 -16 8 0 11 -6 7 -16 -5 -14 0 -16 35 -12 37 3
42 1 43 -17 0 -11 3 -14 6 -7 2 6 9 12 14 12 15 0 10 -40 -6 -56 -24 -24 -18
-63 15 -95 17 -17 27 -36 23 -44 -3 -9 1 -16 8 -16 8 -1 19 -2 24 -4 6 -1 15
-3 20 -4 6 -1 4 -5 -4 -10 -8 -5 -16 -15 -17 -23 -2 -7 -6 -23 -10 -35 -9 -33
15 -30 42 5 24 29 46 23 27 -8 -16 -25 5 -42 58 -46 34 -2 38 0 28 12 -6 8
-17 14 -23 14 -7 0 -12 9 -13 20 -1 14 4 20 19 20 16 0 18 -3 9 -14 -9 -11 -3
-15 31 -20 23 -4 47 -11 54 -17 8 -7 17 -5 28 6 18 19 20 31 6 40 -6 4 -5 12
4 21 20 20 26 18 26 -10 0 -28 26 -42 35 -18 3 9 1 18 -4 20 -19 6 -12 22 9
22 11 0 19 -3 19 -7 -5 -31 3 -64 14 -60 6 2 11 15 9 29 -3 25 -1 26 47 24 27
-1 56 -8 65 -15 12 -10 19 -11 30 -2 8 6 18 11 22 10 21 -3 35 2 29 11 -3 6
-20 10 -37 10 -26 0 -29 2 -18 15 7 8 16 13 20 10 9 -6 20 19 20 43 -1 15 -2
16 -13 1 -7 -9 -18 -14 -24 -12 -7 3 -13 -3 -13 -12 0 -15 -2 -15 -15 -1 -9 8
-22 13 -30 10 -8 -4 -15 -2 -15 2 0 19 -48 11 -59 -10 -11 -19 -11 -19 -6 7 4
20 1 27 -10 27 -8 0 -15 6 -15 13 0 9 -2 9 -8 0 -4 -6 -24 -11 -44 -10 -33 1
-37 3 -32 23 6 24 -7 36 -43 40 -17 2 -23 -3 -24 -19 -1 -15 -5 -10 -13 16
-11 36 -12 36 -29 20 -17 -17 -18 -17 -11 0 4 11 1 17 -7 17 -10 0 -10 3 -1
12 17 17 15 24 -7 24 -11 0 -18 -3 -17 -6 2 -3 0 -14 -5 -25 -7 -19 -8 -19 -8
2 -1 17 -5 21 -18 16 -12 -5 -15 -2 -10 10 10 28 -3 48 -27 42 -21 -6 -21 -6
-2 9 17 14 18 16 3 16 -13 0 -15 5 -7 24 8 21 6 26 -11 31 -15 5 -18 10 -10
18 16 16 13 27 -6 28 -11 0 -13 3 -5 6 6 2 12 9 12 14 0 17 -33 9 -57 -12 -20
-20 -23 -20 -29 -5 -4 10 -2 22 5 29 16 16 14 30 -4 23 -10 -3 -15 1 -15 11 0
14 -2 14 -15 -3 -20 -26 -19 0 1 30 16 26 3 46 -19 28 -7 -5 -22 -12 -34 -15
-21 -5 -23 -2 -23 35 0 30 -4 39 -14 35 -17 -7 20 72 43 91 13 10 14 12 1 10
-25 -3 -60 12 -60 28 0 23 -17 16 -24 -11 -6 -22 -9 -23 -31 -13 -17 8 -22 15
-15 22 6 8 2 16 -11 25 -15 9 -19 19 -15 36 5 19 3 23 -9 19 -8 -4 -15 -1 -15
5 0 6 -6 10 -12 9 -7 -2 -13 4 -13 12 0 9 8 14 20 12 14 -2 16 0 7 6 -7 5 -10
16 -7 25 5 12 2 14 -16 10 -20 -6 -21 -3 -15 21 9 36 -1 66 -21 66 -22 0 -11
10 18 15 13 3 27 -1 31 -8 4 -6 8 -7 8 -2 0 18 -14 33 -35 36 -12 3 -21 14
-23 27 -2 12 -13 28 -24 37 -18 12 -19 15 -6 20 26 10 30 36 9 57 -11 10 -24
18 -29 18 -6 0 -18 12 -27 27 -17 25 -17 28 1 60 14 28 15 36 5 43 -11 6 -11
14 3 40 9 18 16 35 16 37 0 10 -39 1 -50 -12 -16 -20 -56 -19 -64 1 -4 11 -13
13 -28 8 -28 -8 -40 -24 -32 -44 19 -49 5 -80 -43 -94 -19 -6 -23 -3 -23 13 0
12 5 21 10 21 13 0 13 27 0 32 -6 2 -14 24 -18 50 l-7 47 -75 -157z m170 -42
c0 -5 -2 -10 -4 -10 -3 0 -8 5 -11 10 -3 6 -1 10 4 10 6 0 11 -4 11 -10z m-24
-97 c-10 -10 -19 5 -10 18 6 11 8 11 12 0 2 -7 1 -15 -2 -18z m28 -39 c4 -10
-1 -22 -11 -30 -28 -21 -33 -17 -22 16 12 33 24 38 33 14z m183 -27 c2 -17 1
-19 -7 -7 -11 17 -14 47 -3 36 4 -3 8 -17 10 -29z m-163 -82 c-4 -8 -11 -15
-16 -15 -6 0 -5 6 2 15 7 8 14 15 16 15 2 0 1 -7 -2 -15z m46 -135 c0 -5 -5
-10 -11 -10 -5 0 -7 5 -4 10 3 6 8 10 11 10 2 0 4 -4 4 -10z m42 -20 c-2 -16
-8 -30 -13 -30 -5 0 -9 14 -9 30 0 18 5 30 13 30 9 0 12 -10 9 -30z m-75 -82
c-3 -8 -6 -5 -6 6 -1 11 2 17 5 13 3 -3 4 -12 1 -19z m73 -8 c0 -5 -5 -10 -11
-10 -5 0 -7 5 -4 10 3 6 8 10 11 10 2 0 4 -4 4 -10z m33 -2 c3 -10 8 -10 23 2
18 14 18 14 2 -5 -9 -11 -20 -32 -23 -47 -4 -16 -11 -28 -16 -28 -6 0 -5 9 1
20 10 19 6 24 -14 21 -5 -1 -6 5 -2 14 3 9 6 21 6 26 0 14 18 11 23 -3z m267
-38 c0 -11 -4 -20 -9 -20 -5 0 -7 9 -4 20 3 11 7 20 9 20 2 0 4 -9 4 -20z
m-32 -15 c0 -20 -3 -23 -14 -14 -7 6 -10 17 -7 25 8 23 21 16 21 -11z m-44 7
c2 -4 -2 -16 -10 -27 -11 -14 -17 -16 -26 -7 -8 8 -8 15 2 27 14 16 26 19 34
7z m-150 -59 c-4 -16 -13 -35 -21 -43 -12 -13 -13 -12 -10 5 3 18 28 65 35 65
1 0 -1 -12 -4 -27z m-77 -5 c-3 -8 -6 -5 -6 6 -1 11 2 17 5 13 3 -3 4 -12 1
-19z m244 -21 c-8 -8 -11 -7 -11 4 0 9 3 19 7 23 4 4 9 2 11 -4 3 -7 -1 -17
-7 -23z m-305 -4 c-2 -2 -11 0 -20 3 -14 5 -15 9 -5 15 12 7 34 -10 25 -18z
m348 -32 c-9 -10 -26 18 -18 30 5 9 9 8 14 -7 4 -10 6 -21 4 -23z m-284 5 c0
-3 -4 -8 -10 -11 -5 -3 -10 -1 -10 4 0 6 5 11 10 11 6 0 10 -2 10 -4z m145
-46 c-3 -5 -11 -10 -16 -10 -6 0 -7 5 -4 10 3 6 11 10 16 10 6 0 7 -4 4 -10z
m190 -20 c-10 -11 -20 -18 -23 -15 -7 6 18 35 31 35 5 0 2 -9 -8 -20z m-140
-35 c-2 -11 -5 -30 -5 -43 0 -13 -4 -20 -10 -17 -5 3 -10 21 -10 40 0 40 -15
54 -23 23 -4 -12 -9 -20 -12 -16 -3 3 -1 17 6 30 10 22 14 24 35 14 18 -8 23
-17 19 -31z m-223 13 c-7 -7 -12 -8 -12 -2 0 14 12 26 19 19 2 -3 -1 -11 -7
-17z m70 -8 c2 -16 -1 -31 -7 -33 -7 -3 -9 7 -7 29 5 42 8 43 14 4z m338 -20
c0 -5 -5 -10 -11 -10 -5 0 -7 5 -4 10 3 6 8 10 11 10 2 0 4 -4 4 -10z m-950
-69 c0 -6 -4 -13 -10 -16 -5 -3 -10 1 -10 9 0 9 5 16 10 16 6 0 10 -4 10 -9z
m1035 -10 c3 -5 2 -12 -3 -15 -5 -3 -9 1 -9 9 0 17 3 19 12 6z m-345 -22 c0
-6 -4 -7 -10 -4 -5 3 -10 11 -10 16 0 6 5 7 10 4 6 -3 10 -11 10 -16z m-670
-4 c0 -8 -4 -15 -10 -15 -5 0 -10 7 -10 15 0 8 5 15 10 15 6 0 10 -7 10 -15z
m-100 -25 c0 -5 -4 -10 -10 -10 -5 0 -10 5 -10 10 0 6 5 10 10 10 6 0 10 -4
10 -10z m748 -15 c0 -14 -4 -25 -9 -25 -5 0 -9 11 -9 25 0 14 4 25 9 25 5 0 9
-11 9 -25z m42 -5 c0 -5 -4 -10 -10 -10 -5 0 -10 5 -10 10 0 6 5 10 10 10 6 0
10 -4 10 -10z m115 -10 c8 0 12 -11 11 -30 -1 -16 1 -30 6 -30 4 0 8 -7 8 -15
0 -25 -17 -17 -31 14 -7 16 -17 27 -21 25 -10 -6 -11 40 -1 50 4 4 9 2 11 -3
2 -6 10 -11 17 -11z m229 -56 c5 -20 11 -24 27 -19 18 6 20 4 14 -14 -4 -12
-2 -21 4 -21 6 0 11 5 11 10 0 6 5 10 10 10 7 0 7 -6 0 -19 -13 -24 -13 -51
-1 -51 5 0 11 10 13 23 4 29 37 33 65 7 12 -11 29 -20 37 -20 8 0 18 -5 21
-10 5 -8 11 -8 20 0 9 7 15 8 20 1 3 -6 -4 -12 -17 -15 -36 -6 -69 -6 -64 2 2
4 -2 13 -10 19 -8 8 -15 9 -19 3 -3 -6 -2 -10 3 -10 5 0 12 -9 15 -20 3 -11 1
-18 -3 -15 -5 3 -11 1 -15 -4 -3 -6 -12 -8 -20 -4 -8 3 -15 0 -15 -6 0 -6 -4
-11 -10 -11 -5 0 -10 9 -10 21 0 14 -5 19 -14 16 -8 -3 -20 1 -27 9 -7 8 -18
13 -24 10 -7 -2 -19 3 -27 13 -12 14 -12 19 -1 29 10 10 13 9 13 -9 0 -18 2
-19 15 -9 8 7 15 9 15 5 0 -5 3 -6 6 -3 10 11 -27 57 -42 51 -8 -3 -14 0 -14
6 0 6 -7 11 -15 11 -18 0 -19 5 -3 29 15 24 34 17 42 -15z m246 -54 c0 -5 -2
-10 -4 -10 -3 0 -8 5 -11 10 -3 6 -1 10 4 10 6 0 11 -4 11 -10z m70 -80 c12
-8 9 -10 -12 -10 -16 0 -28 5 -28 10 0 13 20 13 40 0z m-75 -20 c3 -5 1 -10
-4 -10 -6 0 -11 5 -11 10 0 6 2 10 4 10 3 0 8 -4 11 -10z m225 -6 c0 -8 -5
-12 -10 -9 -6 4 -8 11 -5 16 9 14 15 11 15 -7z m-1621 -208 c9 -11 9 -15 -1
-19 -10 -4 -11 -7 0 -18 6 -7 12 -18 12 -23 0 -17 -34 37 -35 56 -2 22 8 23
24 4z m61 -86 c0 -5 -2 -10 -4 -10 -3 0 -8 5 -11 10 -3 6 -1 10 4 10 6 0 11
-4 11 -10z m80 -80 c0 -5 -2 -10 -4 -10 -3 0 -8 5 -11 10 -3 6 -1 10 4 10 6 0
11 -4 11 -10z m31 -27 c13 -16 12 -17 -3 -4 -17 13 -22 21 -14 21 2 0 10 -8
17 -17z m85 -53 c-1 -11 9 -15 34 -13 19 0 27 -1 17 -4 -9 -2 -15 -9 -12 -14
10 -15 -28 3 -57 27 -26 21 -27 22 -4 20 14 0 23 -7 22 -16z m84 0 c0 -5 -2
-10 -4 -10 -3 0 -8 5 -11 10 -3 6 -1 10 4 10 6 0 11 -4 11 -10z m-5 -60 c3 -6
-1 -7 -9 -4 -18 7 -21 14 -7 14 6 0 13 -4 16 -10z"/>
<path d="M6270 6179 c0 -11 5 -17 10 -14 6 3 10 13 10 21 0 8 -4 14 -10 14 -5
0 -10 -9 -10 -21z"/>
<path d="M7696 7107 c-7 -31 1 -54 15 -40 5 5 5 22 0 38 l-8 30 -7 -28z"/>
<path d="M2086 7101 c-10 -11 -16 -25 -14 -31 2 -6 11 3 21 20 21 34 18 39 -7
11z"/>
<path d="M2005 7085 c-22 -13 -33 -24 -25 -24 8 0 29 11 45 24 38 32 31 32
-20 0z"/>
<path d="M6875 7061 c-3 -5 -1 -12 5 -16 5 -3 10 1 10 9 0 18 -6 21 -15 7z"/>
<path d="M7122 7048 c10 -15 15 -34 12 -43 -5 -11 -2 -14 10 -9 29 11 18 -24
-19 -60 -19 -20 -35 -39 -35 -44 0 -12 58 -30 127 -37 34 -4 67 -13 74 -21 16
-19 73 -18 90 2 12 14 9 20 -16 41 -17 14 -48 41 -70 61 -22 19 -55 41 -72 50
-18 9 -33 22 -33 29 0 7 -5 13 -11 13 -6 0 -25 10 -42 22 l-32 23 17 -27z"/>
<path d="M1877 6989 c-21 -15 -45 -25 -53 -22 -19 7 -17 -7 5 -34 23 -27 31
-29 31 -6 0 9 14 32 32 50 41 42 34 48 -15 12z"/>
<path d="M2010 6960 c-48 -43 -81 -65 -125 -79 -59 -20 -159 -31 -171 -19 -3
4 -17 2 -31 -5 -25 -11 -25 -11 14 -22 21 -7 45 -8 54 -4 9 5 21 3 27 -3 8 -8
15 -8 26 2 9 7 23 10 31 6 8 -3 15 -1 15 4 0 6 13 10 29 10 17 0 33 5 36 10 3
6 14 10 24 10 18 0 124 89 107 90 -5 0 -2 8 6 18 16 19 31 42 26 42 -2 -1 -32
-27 -68 -60z"/>
<path d="M7707 7014 c-17 -17 -1 -143 21 -174 9 -12 22 30 21 70 -2 82 -20
126 -42 104z"/>
<path d="M6970 6980 c0 -5 4 -10 9 -10 6 0 13 5 16 10 3 6 -1 10 -9 10 -9 0
-16 -4 -16 -10z"/>
<path d="M1690 6900 c-21 -19 -26 -27 -13 -21 12 6 28 9 35 8 7 -2 9 -2 5 1
-5 2 -1 13 9 23 27 30 2 22 -36 -11z"/>
<path d="M1763 6883 c9 -2 25 -2 35 0 9 3 1 5 -18 5 -19 0 -27 -2 -17 -5z"/>
<path d="M5920 6855 c0 -14 5 -25 10 -25 6 0 10 4 10 9 0 5 3 16 6 25 4 11 1
16 -10 16 -10 0 -16 -9 -16 -25z"/>
<path d="M1590 6830 c20 -13 33 -13 25 0 -3 6 -14 10 -23 10 -15 0 -15 -2 -2
-10z"/>
<path d="M6024 6819 c-8 -14 5 -29 21 -22 10 3 15 -1 13 -13 -2 -33 2 -54 11
-54 6 0 8 12 7 28 -2 15 -4 34 -5 43 -1 18 -38 32 -47 18z"/>
<path d="M1586 6795 c-11 -8 -15 -15 -9 -15 6 0 16 7 23 15 16 19 11 19 -14 0z"/>
<path d="M1410 6766 c0 -2 9 -6 20 -9 11 -3 18 -1 14 4 -5 9 -34 13 -34 5z"/>
<path d="M7540 6749 c0 -10 27 -19 34 -12 11 12 6 19 -14 19 -11 0 -20 -3 -20
-7z"/>
<path d="M1426 6698 c-16 -31 -16 -31 4 -13 11 10 17 22 13 28 -4 6 0 8 11 4
10 -4 15 -3 11 3 -11 18 -23 11 -39 -22z"/>
<path d="M7587 6723 c-4 -3 -7 -11 -7 -17 0 -6 5 -5 12 2 6 6 9 14 7 17 -3 3
-9 2 -12 -2z"/>
<path d="M7520 6705 c-11 -13 -10 -14 4 -9 9 3 16 10 16 15 0 13 -6 11 -20 -6z"/>
<path d="M1483 6690 c1 -20 12 -26 20 -12 3 4 -1 13 -8 19 -11 10 -13 9 -12
-7z"/>
<path d="M6035 6650 c-4 -6 -3 -16 3 -22 13 -13 23 4 13 21 -7 10 -10 10 -16
1z"/>
<path d="M1430 6640 c-9 -6 -10 -10 -3 -10 6 0 15 5 18 10 8 12 4 12 -15 0z"/>
<path d="M0 6391 c0 -138 2 -251 5 -251 3 0 58 27 123 59 64 32 149 71 187 86
78 31 125 60 125 78 0 7 12 30 26 50 14 21 24 40 22 41 -14 10 -88 39 -163 64
-50 16 -133 48 -185 70 -52 22 -105 43 -117 47 l-23 6 0 -250z"/>
<path d="M1493 6594 c-17 -19 -28 -34 -25 -34 9 0 72 56 72 64 0 13 -16 2 -47
-30z"/>
<path d="M1553 6554 c-17 -7 -34 -18 -38 -24 -8 -12 65 16 80 31 13 13 -3 10
-42 -7z"/>
<path d="M6141 6561 c-8 -5 -9 -11 -3 -15 5 -3 12 1 16 9 6 17 6 18 -13 6z"/>
<path d="M6241 6454 c0 -11 3 -14 6 -6 3 7 2 16 -1 19 -3 4 -6 -2 -5 -13z"/>
<path d="M5642 6419 c2 -7 10 -15 17 -17 8 -3 12 1 9 9 -2 7 -10 15 -17 17 -8
3 -12 -1 -9 -9z"/>
<path d="M6247 6423 c-4 -3 -7 -11 -7 -17 0 -6 5 -5 12 2 6 6 9 14 7 17 -3 3
-9 2 -12 -2z"/>
<path d="M6276 6391 c-4 -7 -5 -15 -2 -18 9 -9 19 4 14 18 -4 11 -6 11 -12 0z"/>
<path d="M7730 6347 c-46 -30 -121 -68 -193 -97 -31 -12 -59 -26 -62 -30 -2
-3 2 -31 11 -61 8 -30 17 -83 20 -119 4 -41 12 -69 23 -78 9 -7 10 -11 4 -7
-8 4 -13 0 -13 -9 0 -8 6 -17 13 -20 7 -4 8 -8 2 -11 -17 -8 -5 -96 14 -102 9
-4 26 -17 38 -30 12 -13 29 -23 38 -23 9 0 14 -4 11 -9 -8 -13 114 -117 133
-114 11 2 12 1 3 -3 -16 -7 44 -74 66 -74 7 0 12 -6 9 -12 -2 -7 1 -20 8 -28
23 -27 74 -134 83 -176 5 -23 22 -74 37 -113 20 -54 31 -71 46 -71 10 0 19 -4
19 -10 0 -5 -7 -7 -16 -3 -14 5 -15 3 -5 -15 7 -12 19 -22 28 -22 13 0 14 -3
5 -12 -17 -17 -15 -26 9 -33 13 -4 17 -10 11 -14 -7 -4 5 -35 34 -86 24 -44
54 -99 66 -123 18 -35 26 -41 43 -35 11 4 27 6 35 6 8 -1 57 -4 108 -7 65 -5
92 -4 92 4 0 7 7 5 16 -4 8 -9 30 -16 47 -16 18 0 46 -4 64 -9 20 -6 35 -5 41
1 13 13 33 1 26 -16 -3 -8 5 -22 18 -32 13 -11 41 -48 63 -84 54 -91 89 -144
96 -148 4 -2 24 -37 45 -79 22 -42 47 -78 57 -81 11 -3 16 -11 12 -22 -3 -9 1
-23 10 -30 8 -7 15 -19 15 -27 0 -7 11 -35 24 -61 13 -27 27 -75 30 -108 11
-100 41 -197 85 -269 23 -39 49 -87 59 -107 17 -38 32 -49 32 -24 0 49 213
422 347 608 l62 87 1 459 0 459 -62 29 c-99 46 -437 223 -503 264 -33 20 -85
50 -115 67 -398 217 -827 478 -1036 630 -56 40 -106 73 -110 73 -5 0 -25 -10
-44 -23z m-165 -277 c3 -5 2 -10 -4 -10 -5 0 -13 5 -16 10 -3 6 -2 10 4 10 5
0 13 -4 16 -10z m5 -40 c0 -5 -2 -10 -4 -10 -3 0 -8 5 -11 10 -3 6 -1 10 4 10
6 0 11 -4 11 -10z m50 -10 c0 -5 -2 -10 -4 -10 -3 0 -8 5 -11 10 -3 6 -1 10 4
10 6 0 11 -4 11 -10z m15 -70 c3 -5 1 -10 -4 -10 -6 0 -11 5 -11 10 0 6 2 10
4 10 3 0 8 -4 11 -10z m55 -10 c0 -5 -2 -10 -4 -10 -3 0 -8 5 -11 10 -3 6 -1
10 4 10 6 0 11 -4 11 -10z m-95 -28 c-3 -3 -11 0 -18 7 -9 10 -8 11 6 5 10 -3
15 -9 12 -12z m100 -2 c3 -5 1 -10 -4 -10 -6 0 -11 5 -11 10 0 6 2 10 4 10 3
0 8 -4 11 -10z m15 -40 c0 -5 -4 -10 -10 -10 -5 0 -10 5 -10 10 0 6 5 10 10
10 6 0 10 -4 10 -10z m105 -10 c3 -5 1 -10 -4 -10 -6 0 -11 5 -11 10 0 6 2 10
4 10 3 0 8 -4 11 -10z m55 -10 c0 -5 -2 -10 -4 -10 -3 0 -8 5 -11 10 -3 6 -1
10 4 10 6 0 11 -4 11 -10z m-305 -10 c3 -5 2 -10 -4 -10 -5 0 -13 5 -16 10 -3
6 -2 10 4 10 5 0 13 -4 16 -10z m50 0 c3 -5 2 -10 -4 -10 -5 0 -13 5 -16 10
-3 6 -2 10 4 10 5 0 13 -4 16 -10z m105 -10 c0 -5 -2 -10 -4 -10 -3 0 -8 5
-11 10 -3 6 -1 10 4 10 6 0 11 -4 11 -10z m215 -20 c3 -5 2 -10 -4 -10 -5 0
-13 5 -16 10 -3 6 -2 10 4 10 5 0 13 -4 16 -10z m-310 -10 c3 -5 -1 -10 -10
-10 -9 0 -13 5 -10 10 3 6 8 10 10 10 2 0 7 -4 10 -10z m155 -10 c0 -5 -2 -10
-4 -10 -3 0 -8 5 -11 10 -3 6 -1 10 4 10 6 0 11 -4 11 -10z m110 -10 c0 -5 -2
-10 -4 -10 -3 0 -8 5 -11 10 -3 6 -1 10 4 10 6 0 11 -4 11 -10z m105 -10 c3
-5 1 -10 -4 -10 -6 0 -11 5 -11 10 0 6 2 10 4 10 3 0 8 -4 11 -10z m-310 -10
c3 -5 1 -10 -4 -10 -6 0 -11 5 -11 10 0 6 2 10 4 10 3 0 8 -4 11 -10z m105
-10 c0 -5 -2 -10 -4 -10 -3 0 -8 5 -11 10 -3 6 -1 10 4 10 6 0 11 -4 11 -10z
m55 0 c3 -5 1 -10 -4 -10 -6 0 -11 5 -11 10 0 6 2 10 4 10 3 0 8 -4 11 -10z
m110 -10 c3 -5 1 -10 -4 -10 -6 0 -11 5 -11 10 0 6 2 10 4 10 3 0 8 -4 11 -10z
m-260 -20 c3 -5 1 -10 -4 -10 -6 0 -11 5 -11 10 0 6 2 10 4 10 3 0 8 -4 11
-10z m62 -6 c-3 -3 -12 -4 -19 -1 -8 3 -5 6 6 6 11 1 17 -2 13 -5z m50 0 c-3
-3 -12 -4 -19 -1 -8 3 -5 6 6 6 11 1 17 -2 13 -5z m48 -4 c3 -5 1 -10 -4 -10
-6 0 -11 5 -11 10 0 6 2 10 4 10 3 0 8 -4 11 -10z m-85 -40 c0 -5 -7 -7 -15
-4 -8 4 -15 8 -15 10 0 2 7 4 15 4 8 0 15 -4 15 -10z m50 0 c0 -5 -2 -10 -4
-10 -3 0 -8 5 -11 10 -3 6 -1 10 4 10 6 0 11 -4 11 -10z m50 0 c0 -5 -2 -10
-4 -10 -3 0 -8 5 -11 10 -3 6 -1 10 4 10 6 0 11 -4 11 -10z m50 0 c0 -5 -4
-10 -10 -10 -5 0 -10 5 -10 10 0 6 5 10 10 10 6 0 10 -4 10 -10z m110 -10 c0
-5 -2 -10 -4 -10 -3 0 -8 5 -11 10 -3 6 -1 10 4 10 6 0 11 -4 11 -10z m-200
-30 c0 -5 -2 -10 -4 -10 -3 0 -8 5 -11 10 -3 6 -1 10 4 10 6 0 11 -4 11 -10z
m50 0 c0 -5 -2 -10 -4 -10 -3 0 -8 5 -11 10 -3 6 -1 10 4 10 6 0 11 -4 11 -10z
m55 0 c3 -5 2 -10 -4 -10 -5 0 -13 5 -16 10 -3 6 -2 10 4 10 5 0 13 -4 16 -10z
m-95 -40 c0 -5 -2 -10 -4 -10 -3 0 -8 5 -11 10 -3 6 -1 10 4 10 6 0 11 -4 11
-10z m55 0 c3 -5 2 -10 -4 -10 -5 0 -13 5 -16 10 -3 6 -2 10 4 10 5 0 13 -4
16 -10z m50 0 c3 -5 1 -10 -4 -10 -6 0 -11 5 -11 10 0 6 2 10 4 10 3 0 8 -4
11 -10z m50 0 c3 -5 1 -10 -4 -10 -6 0 -11 5 -11 10 0 6 2 10 4 10 3 0 8 -4
11 -10z m-90 -40 c3 -5 2 -10 -4 -10 -5 0 -13 5 -16 10 -3 6 -2 10 4 10 5 0
13 -4 16 -10z m55 0 c0 -5 -4 -10 -10 -10 -5 0 -10 5 -10 10 0 6 5 10 10 10 6
0 10 -4 10 -10z m50 0 c0 -5 -4 -10 -10 -10 -5 0 -10 5 -10 10 0 6 5 10 10 10
6 0 10 -4 10 -10z m-95 -40 c3 -5 1 -10 -4 -10 -6 0 -11 5 -11 10 0 6 2 10 4
10 3 0 8 -4 11 -10z m55 0 c0 -5 -4 -10 -10 -10 -5 0 -10 5 -10 10 0 6 5 10
10 10 6 0 10 -4 10 -10z m50 0 c0 -5 -2 -10 -4 -10 -3 0 -8 5 -11 10 -3 6 -1
10 4 10 6 0 11 -4 11 -10z m-80 -46 c0 -2 -7 -4 -15 -4 -8 0 -15 4 -15 10 0 5
7 7 15 4 8 -4 15 -8 15 -10z m45 6 c3 -5 -1 -10 -9 -10 -9 0 -16 5 -16 10 0 6
4 10 9 10 6 0 13 -4 16 -10z m50 0 c3 -5 1 -10 -4 -10 -6 0 -11 5 -11 10 0 6
2 10 4 10 3 0 8 -4 11 -10z m-40 -40 c3 -5 1 -10 -4 -10 -6 0 -11 5 -11 10 0
6 2 10 4 10 3 0 8 -4 11 -10z m50 0 c3 -5 1 -10 -4 -10 -6 0 -11 5 -11 10 0 6
2 10 4 10 3 0 8 -4 11 -10z m-95 -10 c0 -5 -4 -10 -9 -10 -6 0 -13 5 -16 10
-3 6 1 10 9 10 9 0 16 -4 16 -10z m377 4 c-3 -3 -12 -4 -19 -1 -8 3 -5 6 6 6
11 1 17 -2 13 -5z m-367 -44 c0 -5 -4 -10 -10 -10 -5 0 -10 5 -10 10 0 6 5 10
10 10 6 0 10 -4 10 -10z m50 0 c0 -5 -2 -10 -4 -10 -3 0 -8 5 -11 10 -3 6 -1
10 4 10 6 0 11 -4 11 -10z m57 4 c-3 -3 -12 -4 -19 -1 -8 3 -5 6 6 6 11 1 17
-2 13 -5z m270 0 c-3 -3 -12 -4 -19 -1 -8 3 -5 6 6 6 11 1 17 -2 13 -5z m8
-34 c3 -5 1 -10 -4 -10 -6 0 -11 5 -11 10 0 6 2 10 4 10 3 0 8 -4 11 -10z m60
0 c3 -5 -1 -10 -9 -10 -9 0 -16 5 -16 10 0 6 4 10 9 10 6 0 13 -4 16 -10z m50
0 c3 -5 1 -10 -4 -10 -6 0 -11 5 -11 10 0 6 2 10 4 10 3 0 8 -4 11 -10z m-475
-16 c0 -2 -7 -4 -15 -4 -8 0 -15 4 -15 10 0 5 7 7 15 4 8 -4 15 -8 15 -10z
m45 6 c3 -5 -1 -10 -9 -10 -9 0 -16 5 -16 10 0 6 4 10 9 10 6 0 13 -4 16 -10z
m50 0 c3 -5 1 -10 -4 -10 -6 0 -11 5 -11 10 0 6 2 10 4 10 3 0 8 -4 11 -10z
m340 -30 c3 -5 -1 -10 -10 -10 -9 0 -13 5 -10 10 3 6 8 10 10 10 2 0 7 -4 10
-10z m55 0 c0 -5 -4 -10 -10 -10 -5 0 -10 5 -10 10 0 6 5 10 10 10 6 0 10 -4
10 -10z m55 0 c3 -5 1 -10 -4 -10 -6 0 -11 5 -11 10 0 6 2 10 4 10 3 0 8 -4
11 -10z m-535 -20 c0 -5 -4 -10 -10 -10 -5 0 -10 5 -10 10 0 6 5 10 10 10 6 0
10 -4 10 -10z m50 0 c0 -5 -2 -10 -4 -10 -3 0 -8 5 -11 10 -3 6 -1 10 4 10 6
0 11 -4 11 -10z m340 -26 c0 -2 -7 -4 -15 -4 -8 0 -15 4 -15 10 0 5 7 7 15 4
8 -4 15 -8 15 -10z m45 6 c3 -5 2 -10 -4 -10 -5 0 -13 5 -16 10 -3 6 -2 10 4
10 5 0 13 -4 16 -10z m60 0 c3 -5 2 -10 -4 -10 -5 0 -13 5 -16 10 -3 6 -2 10
4 10 5 0 13 -4 16 -10z m55 0 c0 -5 -4 -10 -10 -10 -5 0 -10 5 -10 10 0 6 5
10 10 10 6 0 10 -4 10 -10z m60 0 c0 -5 -4 -10 -10 -10 -5 0 -10 5 -10 10 0 6
5 10 10 10 6 0 10 -4 10 -10z m-280 -10 c0 -5 -2 -10 -4 -10 -3 0 -8 5 -11 10
-3 6 -1 10 4 10 6 0 11 -4 11 -10z m-265 -10 c3 -5 -1 -10 -10 -10 -9 0 -13 5
-10 10 3 6 8 10 10 10 2 0 7 -4 10 -10z m-48 -6 c-3 -3 -12 -4 -19 -1 -8 3 -5
6 6 6 11 1 17 -2 13 -5z m488 -14 c3 -5 -1 -10 -9 -10 -9 0 -16 5 -16 10 0 6
4 10 9 10 6 0 13 -4 16 -10z m55 0 c0 -5 -4 -10 -10 -10 -5 0 -10 5 -10 10 0
6 5 10 10 10 6 0 10 -4 10 -10z m60 0 c0 -5 -4 -10 -10 -10 -5 0 -10 5 -10 10
0 6 5 10 10 10 6 0 10 -4 10 -10z m57 4 c-3 -3 -12 -4 -19 -1 -8 3 -5 6 6 6
11 1 17 -2 13 -5z m-337 -14 c0 -5 -2 -10 -4 -10 -3 0 -8 5 -11 10 -3 6 -1 10
4 10 6 0 11 -4 11 -10z m57 4 c-3 -3 -12 -4 -19 -1 -8 3 -5 6 6 6 11 1 17 -2
13 -5z m-362 -24 c3 -5 -1 -10 -9 -10 -9 0 -16 5 -16 10 0 6 4 10 9 10 6 0 13
-4 16 -10z m45 0 c0 -5 -2 -10 -4 -10 -3 0 -8 5 -11 10 -3 6 -1 10 4 10 6 0
11 -4 11 -10z m450 -16 c0 -2 -7 -4 -15 -4 -8 0 -15 4 -15 10 0 5 7 7 15 4 8
-4 15 -8 15 -10z m45 6 c3 -5 2 -10 -4 -10 -5 0 -13 5 -16 10 -3 6 -2 10 4 10
5 0 13 -4 16 -10z m55 0 c0 -5 -2 -10 -4 -10 -3 0 -8 5 -11 10 -3 6 -1 10 4
10 6 0 11 -4 11 -10z m57 4 c-3 -3 -12 -4 -19 -1 -8 3 -5 6 6 6 11 1 17 -2 13
-5z m60 0 c-3 -3 -12 -4 -19 -1 -8 3 -5 6 6 6 11 1 17 -2 13 -5z m-392 -14 c3
-5 2 -10 -4 -10 -5 0 -13 5 -16 10 -3 6 -2 10 4 10 5 0 13 -4 16 -10z m55 0
c0 -5 -4 -10 -10 -10 -5 0 -10 5 -10 10 0 6 5 10 10 10 6 0 10 -4 10 -10z m57
4 c-3 -3 -12 -4 -19 -1 -8 3 -5 6 6 6 11 1 17 -2 13 -5z m-372 -24 c3 -5 -1
-10 -9 -10 -9 0 -16 5 -16 10 0 6 4 10 9 10 6 0 13 -4 16 -10z m720 0 c3 -5 1
-10 -4 -10 -6 0 -11 5 -11 10 0 6 2 10 4 10 3 0 8 -4 11 -10z m-225 -10 c0 -5
-4 -10 -10 -10 -5 0 -10 5 -10 10 0 6 5 10 10 10 6 0 10 -4 10 -10z m60 0 c0
-5 -4 -10 -9 -10 -6 0 -13 5 -16 10 -3 6 1 10 9 10 9 0 16 -4 16 -10z m60 6
c0 -11 -19 -15 -25 -6 -3 5 1 10 9 10 9 0 16 -2 16 -4z m-285 -16 c3 -5 -1
-10 -9 -10 -9 0 -16 5 -16 10 0 6 4 10 9 10 6 0 13 -4 16 -10z m55 0 c0 -5 -4
-10 -10 -10 -5 0 -10 5 -10 10 0 6 5 10 10 10 6 0 10 -4 10 -10z m57 4 c-3 -3
-12 -4 -19 -1 -8 3 -5 6 6 6 11 1 17 -2 13 -5z m-167 -14 c0 -5 -2 -10 -4 -10
-3 0 -8 5 -11 10 -3 6 -1 10 4 10 6 0 11 -4 11 -10z m465 -10 c3 -5 -1 -10 -9
-10 -9 0 -16 5 -16 10 0 6 4 10 9 10 6 0 13 -4 16 -10z m-225 -16 c0 -2 -7 -4
-15 -4 -8 0 -15 4 -15 10 0 5 7 7 15 4 8 -4 15 -8 15 -10z m45 6 c3 -5 1 -10
-4 -10 -6 0 -11 5 -11 10 0 6 2 10 4 10 3 0 8 -4 11 -10z m65 6 c0 -11 -19
-15 -25 -6 -3 5 1 10 9 10 9 0 16 -2 16 -4z m60 -6 c0 -5 -7 -7 -15 -4 -8 4
-15 8 -15 10 0 2 7 4 15 4 8 0 15 -4 15 -10z m-295 -10 c3 -5 1 -10 -4 -10 -6
0 -11 5 -11 10 0 6 2 10 4 10 3 0 8 -4 11 -10z m65 0 c0 -5 -4 -10 -10 -10 -5
0 -10 5 -10 10 0 6 5 10 10 10 6 0 10 -4 10 -10z m-165 -10 c3 -5 -1 -10 -9
-10 -9 0 -16 5 -16 10 0 6 4 10 9 10 6 0 13 -4 16 -10z m55 0 c0 -5 -4 -10 -9
-10 -6 0 -13 5 -16 10 -3 6 1 10 9 10 9 0 16 -4 16 -10z m348 -19 c3 -8 -1
-12 -9 -9 -7 2 -15 10 -17 17 -3 8 1 12 9 9 7 -2 15 -10 17 -17z m62 9 c0 -5
-7 -10 -15 -10 -8 0 -15 5 -15 10 0 6 7 10 15 10 8 0 15 -4 15 -10z m60 0 c0
-5 -6 -10 -14 -10 -8 0 -18 5 -21 10 -3 6 3 10 14 10 12 0 21 -4 21 -10z
m-230 -16 c0 -2 -7 -4 -15 -4 -8 0 -15 4 -15 10 0 5 7 7 15 4 8 -4 15 -8 15
-10z m55 6 c3 -5 -1 -10 -9 -10 -9 0 -16 5 -16 10 0 6 4 10 9 10 6 0 13 -4 16
-10z m-175 -10 c0 -5 -4 -10 -10 -10 -5 0 -10 5 -10 10 0 6 5 10 10 10 6 0 10
-4 10 -10z m60 0 c0 -5 -4 -10 -9 -10 -6 0 -13 5 -16 10 -3 6 1 10 9 10 9 0
16 -4 16 -10z m-165 -10 c3 -5 -1 -10 -9 -10 -9 0 -16 5 -16 10 0 6 4 10 9 10
6 0 13 -4 16 -10z m55 0 c0 -5 -4 -10 -9 -10 -6 0 -13 5 -16 10 -3 6 1 10 9
10 9 0 16 -4 16 -10z m-165 -10 c3 -5 -1 -10 -9 -10 -9 0 -16 5 -16 10 0 6 4
10 9 10 6 0 13 -4 16 -10z m55 0 c0 -5 -4 -10 -10 -10 -5 0 -10 5 -10 10 0 6
5 10 10 10 6 0 10 -4 10 -10z m465 0 c3 -5 -3 -10 -14 -10 -12 0 -21 5 -21 10
0 6 6 10 14 10 8 0 18 -4 21 -10z m55 0 c0 -5 -7 -10 -15 -10 -8 0 -15 5 -15
10 0 6 7 10 15 10 8 0 15 -4 15 -10z m-172 -11 c-2 -6 -8 -10 -13 -10 -5 0
-11 4 -13 10 -2 6 4 11 13 11 9 0 15 -5 13 -11z m62 1 c0 -5 -6 -10 -14 -10
-8 0 -18 5 -21 10 -3 6 3 10 14 10 12 0 21 -4 21 -10z m-180 -10 c0 -5 -4 -10
-10 -10 -5 0 -10 5 -10 10 0 6 5 10 10 10 6 0 10 -4 10 -10z m60 0 c0 -5 -4
-10 -9 -10 -6 0 -13 5 -16 10 -3 6 1 10 9 10 9 0 16 -4 16 -10z m-170 -10 c0
-5 -4 -10 -10 -10 -5 0 -10 5 -10 10 0 6 5 10 10 10 6 0 10 -4 10 -10z m60 0
c0 -5 -7 -7 -15 -4 -8 4 -15 8 -15 10 0 2 7 4 15 4 8 0 15 -4 15 -10z m-165
-10 c3 -5 -1 -10 -9 -10 -9 0 -16 5 -16 10 0 6 4 10 9 10 6 0 13 -4 16 -10z
m55 0 c0 -5 -4 -10 -9 -10 -6 0 -13 5 -16 10 -3 6 1 10 9 10 9 0 16 -4 16 -10z
m-110 -10 c0 -5 -4 -10 -10 -10 -5 0 -10 5 -10 10 0 6 5 10 10 10 6 0 10 -4
10 -10z m460 0 c0 -5 -7 -10 -15 -10 -8 0 -15 5 -15 10 0 6 7 10 15 10 8 0 15
-4 15 -10z m52 -2 c-9 -9 -15 -9 -24 0 -9 9 -7 12 12 12 19 0 21 -3 12 -12z
m-167 -8 c3 -5 -3 -10 -14 -10 -12 0 -21 5 -21 10 0 6 6 10 14 10 8 0 18 -4
21 -10z m55 0 c0 -5 -7 -10 -15 -10 -8 0 -15 5 -15 10 0 6 7 10 15 10 8 0 15
-4 15 -10z m-175 -10 c3 -5 1 -10 -4 -10 -6 0 -11 5 -11 10 0 6 2 10 4 10 3 0
8 -4 11 -10z m65 0 c0 -5 -4 -10 -9 -10 -6 0 -13 5 -16 10 -3 6 1 10 9 10 9 0
16 -4 16 -10z m-160 -16 c0 -2 -7 -4 -15 -4 -8 0 -15 4 -15 10 0 5 7 7 15 4 8
-4 15 -8 15 -10z m50 6 c0 -5 -4 -10 -9 -10 -6 0 -13 5 -16 10 -3 6 1 10 9 10
9 0 16 -4 16 -10z m845 0 c-3 -5 -12 -7 -20 -3 -21 7 -19 13 6 13 11 0 18 -4
14 -10z m-1005 -22 c0 -13 -23 -5 -28 10 -2 7 2 10 12 6 9 -3 16 -11 16 -16z
m50 12 c0 -5 -4 -10 -10 -10 -5 0 -10 5 -10 10 0 6 5 10 10 10 6 0 10 -4 10
-10z m398 -9 c3 -8 -1 -12 -9 -9 -7 2 -15 10 -17 17 -3 8 1 12 9 9 7 -2 15
-10 17 -17z m-503 -1 c3 -5 1 -10 -4 -10 -6 0 -11 5 -11 10 0 6 2 10 4 10 3 0
8 -4 11 -10z m450 0 c3 -5 -3 -10 -14 -10 -12 0 -21 5 -21 10 0 6 6 10 14 10
8 0 18 -4 21 -10z m-115 -15 c0 -8 -4 -15 -9 -15 -13 0 -22 16 -14 24 11 11
23 6 23 -9z m60 5 c0 -5 -7 -10 -15 -10 -8 0 -15 5 -15 10 0 6 7 10 15 10 8 0
15 -4 15 -10z m675 0 c3 -5 -1 -10 -10 -10 -9 0 -13 5 -10 10 3 6 8 10 10 10
2 0 7 -4 10 -10z m62 4 c-3 -3 -12 -4 -19 -1 -8 3 -5 6 6 6 11 1 17 -2 13 -5z
m-852 -14 c3 -5 -1 -10 -9 -10 -9 0 -16 5 -16 10 0 6 4 10 9 10 6 0 13 -4 16
-10z m-110 -10 c3 -5 1 -10 -4 -10 -6 0 -11 5 -11 10 0 6 2 10 4 10 3 0 8 -4
11 -10z m838 3 c-7 -2 -19 -2 -25 0 -7 3 -2 5 12 5 14 0 19 -2 13 -5z m-883
-13 c0 -5 -4 -10 -9 -10 -6 0 -13 5 -16 10 -3 6 1 10 9 10 9 0 16 -4 16 -10z
m1020 0 c0 -5 -7 -10 -16 -10 -8 0 -12 5 -9 10 3 6 10 10 16 10 5 0 9 -4 9
-10z m-1125 -10 c3 -5 2 -10 -4 -10 -5 0 -13 5 -16 10 -3 6 -2 10 4 10 5 0 13
-4 16 -10z m55 0 c0 -5 -4 -10 -9 -10 -6 0 -13 5 -16 10 -3 6 1 10 9 10 9 0
16 -4 16 -10z m335 1 c7 -12 -12 -24 -25 -16 -11 7 -4 25 10 25 5 0 11 -4 15
-9z m55 -1 c0 -5 -7 -10 -15 -10 -8 0 -15 5 -15 10 0 6 7 10 15 10 8 0 15 -4
15 -10z m620 0 c0 -5 -7 -10 -16 -10 -8 0 -12 5 -9 10 3 6 10 10 16 10 5 0 9
-4 9 -10z m-1110 -10 c0 -5 -4 -10 -9 -10 -6 0 -13 5 -16 10 -3 6 1 10 9 10 9
0 16 -4 16 -10z m317 -16 c-9 -9 -28 6 -21 18 4 6 10 6 17 -1 6 -6 8 -13 4
-17z m63 16 c0 -5 -7 -10 -15 -10 -8 0 -15 5 -15 10 0 6 7 10 15 10 8 0 15 -4
15 -10z m665 0 c3 -5 -1 -10 -9 -10 -9 0 -16 5 -16 10 0 6 4 10 9 10 6 0 13
-4 16 -10z m-780 -10 c3 -5 -1 -10 -9 -10 -9 0 -16 5 -16 10 0 6 4 10 9 10 6
0 13 -4 16 -10z m720 0 c3 -5 -1 -10 -9 -10 -9 0 -16 5 -16 10 0 6 4 10 9 10
6 0 13 -4 16 -10z m-770 -10 c3 -5 -1 -10 -9 -10 -9 0 -16 5 -16 10 0 6 4 10
9 10 6 0 13 -4 16 -10z m970 0 c-3 -5 -13 -10 -21 -10 -8 0 -14 5 -14 10 0 6
9 10 21 10 11 0 17 -4 14 -10z m-1075 -21 c0 -6 -4 -7 -10 -4 -5 3 -10 11 -10
16 0 6 5 7 10 4 6 -3 10 -11 10 -16z m55 11 c3 -5 2 -10 -4 -10 -5 0 -13 5
-16 10 -3 6 -2 10 4 10 5 0 13 -4 16 -10z m762 4 c-3 -3 -12 -4 -19 -1 -8 3
-5 6 6 6 11 1 17 -2 13 -5z m193 -4 c0 -5 -7 -10 -16 -10 -8 0 -12 5 -9 10 3
6 10 10 16 10 5 0 9 -4 9 -10z m-1055 -10 c3 -5 -1 -10 -9 -10 -9 0 -16 5 -16
10 0 6 4 10 9 10 6 0 13 -4 16 -10z m375 0 c0 -5 -4 -10 -10 -10 -5 0 -10 5
-10 10 0 6 5 10 10 10 6 0 10 -4 10 -10z m630 -6 c0 -2 -9 -4 -21 -4 -11 0
-18 4 -14 10 5 8 35 3 35 -6z m-1055 -4 c3 -5 2 -10 -4 -10 -5 0 -13 5 -16 10
-3 6 -2 10 4 10 5 0 13 -4 16 -10z m323 -8 c2 -7 -3 -12 -12 -12 -9 0 -16 7
-16 16 0 17 22 14 28 -4z m52 8 c0 -5 -4 -10 -9 -10 -6 0 -13 5 -16 10 -3 6 1
10 9 10 9 0 16 -4 16 -10z m605 0 c3 -5 -1 -10 -9 -10 -9 0 -16 5 -16 10 0 6
4 10 9 10 6 0 13 -4 16 -10z m-714 -13 c-1 -12 -15 -9 -19 4 -3 6 1 10 8 8 6
-3 11 -8 11 -12z m-46 -7 c3 -5 -1 -10 -9 -10 -8 0 -18 5 -21 10 -3 6 1 10 9
10 8 0 18 -4 21 -10z m636 -13 c-13 -13 -26 -3 -16 12 3 6 11 8 17 5 6 -4 6
-10 -1 -17z m69 19 c0 -11 -19 -15 -25 -6 -3 5 1 10 9 10 9 0 16 -2 16 -4z
m190 -6 c0 -5 -7 -10 -16 -10 -8 0 -12 5 -9 10 3 6 10 10 16 10 5 0 9 -4 9
-10z m-50 -16 c0 -2 -9 -4 -21 -4 -11 0 -18 4 -14 10 5 8 35 3 35 -6z m-680
-4 c0 -5 -4 -10 -10 -10 -5 0 -10 5 -10 10 0 6 5 10 10 10 6 0 10 -4 10 -10z
m610 -10 c0 -5 -4 -10 -9 -10 -6 0 -13 5 -16 10 -3 6 1 10 9 10 9 0 16 -4 16
-10z m-60 -10 c0 -5 -7 -10 -15 -10 -8 0 -15 5 -15 10 0 6 7 10 15 10 8 0 15
-4 15 -10z m180 0 c0 -5 -5 -10 -11 -10 -5 0 -7 5 -4 10 3 6 8 10 11 10 2 0 4
-4 4 -10z m-240 -10 c0 -5 -7 -10 -15 -10 -8 0 -15 5 -15 10 0 6 7 10 15 10 8
0 15 -4 15 -10z m-60 -10 c0 -5 -7 -10 -15 -10 -8 0 -15 5 -15 10 0 6 7 10 15
10 8 0 15 -4 15 -10z m255 0 c-3 -5 -10 -10 -16 -10 -5 0 -9 5 -9 10 0 6 7 10
16 10 8 0 12 -4 9 -10z m-55 -10 c0 -5 -9 -10 -20 -10 -11 0 -20 5 -20 10 0 6
9 10 20 10 11 0 20 -4 20 -10z m-253 -6 c-3 -3 -12 -4 -19 -1 -8 3 -5 6 6 6
11 1 17 -2 13 -5z m188 -4 c3 -5 -3 -10 -15 -10 -12 0 -18 5 -15 10 3 6 10 10
15 10 5 0 12 -4 15 -10z m-63 -22 c-12 -12 -35 -1 -27 12 3 5 13 6 21 3 10 -4
12 -9 6 -15z m188 8 c0 -11 -19 -15 -25 -6 -3 5 1 10 9 10 9 0 16 -2 16 -4z
m-240 -16 c0 -5 -6 -10 -14 -10 -8 0 -18 5 -21 10 -3 6 3 10 14 10 12 0 21 -4
21 -10z m184 1 c3 -5 -1 -11 -9 -15 -9 -3 -15 0 -15 9 0 16 16 20 24 6z m-249
-11 c3 -5 -1 -10 -9 -10 -8 0 -18 5 -21 10 -3 6 1 10 9 10 8 0 18 -4 21 -10z
m-55 -10 c0 -5 -7 -10 -15 -10 -8 0 -15 5 -15 10 0 6 7 10 15 10 8 0 15 -4 15
-10z m250 0 c0 -5 -6 -10 -14 -10 -8 0 -18 5 -21 10 -3 6 3 10 14 10 12 0 21
-4 21 -10z m-60 -10 c0 -5 -7 -10 -15 -10 -8 0 -15 5 -15 10 0 6 7 10 15 10 8
0 15 -4 15 -10z m-65 -11 c10 -15 -1 -23 -20 -15 -9 3 -13 10 -10 16 8 13 22
13 30 -1z m185 -9 c0 -5 -4 -10 -10 -10 -5 0 -10 5 -10 10 0 6 5 10 10 10 6 0
10 -4 10 -10z m-240 -10 c0 -5 -4 -10 -9 -10 -6 0 -13 5 -16 10 -3 6 1 10 9
10 9 0 16 -4 16 -10z m184 1 c3 -5 -1 -11 -9 -15 -9 -3 -15 0 -15 9 0 16 16
20 24 6z m-244 -11 c0 -5 -7 -10 -15 -10 -8 0 -15 5 -15 10 0 6 7 10 15 10 8
0 15 -4 15 -10z m-55 -10 c3 -5 -1 -10 -9 -10 -9 0 -16 5 -16 10 0 6 4 10 9
10 6 0 13 -4 16 -10z m245 0 c0 -5 -7 -10 -15 -10 -8 0 -15 5 -15 10 0 6 7 10
15 10 8 0 15 -4 15 -10z m-60 -10 c0 -5 -7 -10 -15 -10 -8 0 -15 5 -15 10 0 6
7 10 15 10 8 0 15 -4 15 -10z m-60 -20 c0 -5 -4 -10 -9 -10 -6 0 -13 5 -16 10
-3 6 1 10 9 10 9 0 16 -4 16 -10z m185 0 c-3 -5 -10 -10 -16 -10 -5 0 -9 5 -9
10 0 6 7 10 16 10 8 0 12 -4 9 -10z m-235 -10 c0 -5 -7 -10 -15 -10 -8 0 -15
5 -15 10 0 6 7 10 15 10 8 0 15 -4 15 -10z m-65 -10 c3 -5 -1 -10 -9 -10 -9 0
-16 5 -16 10 0 6 4 10 9 10 6 0 13 -4 16 -10z m245 0 c0 -5 -7 -10 -15 -10 -8
0 -15 5 -15 10 0 6 7 10 15 10 8 0 15 -4 15 -10z m-295 -10 c3 -5 -1 -10 -9
-10 -9 0 -16 5 -16 10 0 6 4 10 9 10 6 0 13 -4 16 -10z m239 1 c3 -5 0 -11 -8
-14 -15 -6 -26 1 -26 15 0 11 27 10 34 -1z m394 -9 c-45 -61 -63 -82 -70 -82
-4 0 -1 8 6 18 55 67 68 82 72 82 3 0 -1 -8 -8 -18z m-690 -11 c3 -8 -1 -12
-9 -9 -7 2 -15 10 -17 17 -3 8 1 12 9 9 7 -2 15 -10 17 -17z m242 -2 c0 -5 -7
-9 -15 -9 -8 0 -15 7 -15 15 0 9 6 12 15 9 8 -4 15 -10 15 -15z m-60 -9 c0 -5
-7 -10 -15 -10 -8 0 -15 5 -15 10 0 6 7 10 15 10 8 0 15 -4 15 -10z m171 -13
c-13 -13 -26 -3 -16 12 3 6 11 8 17 5 6 -4 6 -10 -1 -17z m-231 -3 c0 -8 -4
-12 -10 -9 -5 3 -10 10 -10 16 0 5 5 9 10 9 6 0 10 -7 10 -16z m-52 -13 c3 -8
-1 -12 -9 -9 -7 2 -15 10 -17 17 -3 8 1 12 9 9 7 -2 15 -10 17 -17z m237 9 c3
-6 -1 -13 -10 -16 -19 -8 -30 0 -20 15 8 14 22 14 30 1z m-285 -21 c0 -5 -7
-9 -15 -9 -8 0 -15 7 -15 15 0 9 6 12 15 9 8 -4 15 -10 15 -15z m230 1 c0 -5
-7 -10 -15 -10 -8 0 -15 5 -15 10 0 6 7 10 15 10 8 0 15 -4 15 -10z m-60 -15
c0 -8 -7 -15 -15 -15 -8 0 -15 7 -15 15 0 8 7 15 15 15 8 0 15 -7 15 -15z
m-52 -13 c2 -7 -3 -12 -12 -12 -9 0 -16 7 -16 16 0 17 22 14 28 -4z m172 0 c0
-13 -12 -22 -22 -16 -10 6 -1 24 13 24 5 0 9 -4 9 -8z m-225 -12 c3 -5 -1 -10
-9 -10 -9 0 -16 5 -16 10 0 6 4 10 9 10 6 0 13 -4 16 -10z m-55 -10 c0 -5 -4
-10 -9 -10 -6 0 -13 5 -16 10 -3 6 1 10 9 10 9 0 16 -4 16 -10z m228 -1 c-2
-6 -8 -10 -13 -10 -5 0 -11 4 -13 10 -2 6 4 11 13 11 9 0 15 -5 13 -11z m-53
-19 c-3 -5 -10 -10 -16 -10 -5 0 -9 5 -9 10 0 6 7 10 16 10 8 0 12 -4 9 -10z
m-57 -11 c-2 -6 -8 -10 -13 -10 -5 0 -11 4 -13 10 -2 6 4 11 13 11 9 0 15 -5
13 -11z m-57 -12 c-1 -12 -15 -9 -19 4 -3 6 1 10 8 8 6 -3 11 -8 11 -12z m-43
-16 c3 -8 -1 -12 -9 -9 -7 2 -15 10 -17 17 -3 8 1 12 9 9 7 -2 15 -10 17 -17z
m208 -8 c-10 -10 -19 5 -10 18 6 11 8 11 12 0 2 -7 1 -15 -2 -18z m-45 -6 c-1
-12 -15 -9 -19 4 -3 6 1 10 8 8 6 -3 11 -8 11 -12z m-51 -18 c0 -5 -4 -9 -10
-9 -5 0 -10 7 -10 16 0 8 5 12 10 9 6 -3 10 -10 10 -16z m-50 -9 c0 -5 -4 -10
-9 -10 -6 0 -13 5 -16 10 -3 6 1 10 9 10 9 0 16 -4 16 -10z m106 -37 c-10 -10
-19 5 -10 18 6 11 8 11 12 0 2 -7 1 -15 -2 -18z m-45 -6 c-1 -12 -15 -9 -19 4
-3 6 1 10 8 8 6 -3 11 -8 11 -12z m-43 -16 c3 -8 -1 -12 -9 -9 -7 2 -15 10
-17 17 -3 8 1 12 9 9 7 -2 15 -10 17 -17z m44 -43 c-7 -7 -12 -8 -12 -2 0 14
12 26 19 19 2 -3 -1 -11 -7 -17z m-34 -16 c6 -18 -15 -14 -22 4 -4 10 -1 14 6
12 6 -2 14 -10 16 -16z"/>
<path d="M5180 6335 c0 -8 5 -15 10 -15 6 0 10 7 10 15 0 8 -4 15 -10 15 -5 0
-10 -7 -10 -15z"/>
<path d="M5600 6340 c0 -5 7 -10 15 -10 8 0 15 5 15 10 0 6 -7 10 -15 10 -8 0
-15 -4 -15 -10z"/>
<path d="M5833 6263 c1 -21 5 -29 11 -23 6 6 5 18 -2 32 -10 22 -11 21 -9 -9z"/>
<path d="M6038 6204 c-11 -10 3 -34 19 -34 8 0 13 7 11 17 -3 18 -20 27 -30
17z"/>
<path d="M6080 6187 c1 -13 34 -57 44 -57 15 0 4 28 -19 48 -15 13 -25 17 -25
9z"/>
<path d="M6734 6174 c3 -9 6 -23 6 -33 0 -10 8 -17 20 -17 13 0 20 7 20 19 0
10 5 15 10 12 6 -4 8 -16 4 -27 -5 -17 -3 -18 15 -9 12 7 21 14 21 17 0 3 -4
2 -10 -1 -6 -3 -10 4 -10 18 0 33 -10 40 -32 20 -17 -15 -18 -15 -18 0 0 10
-7 17 -16 17 -11 0 -14 -5 -10 -16z"/>
<path d="M5980 6170 c0 -5 7 -10 16 -10 8 0 12 5 9 10 -3 6 -10 10 -16 10 -5
0 -9 -4 -9 -10z"/>
<path d="M6846 6155 c4 -8 7 -15 9 -15 2 0 5 7 9 15 3 9 0 15 -9 15 -9 0 -12
-6 -9 -15z"/>
<path d="M5390 6105 c-10 -12 -10 -19 -2 -27 17 -17 37 5 25 27 -9 15 -11 15
-23 0z"/>
<path d="M6760 6085 c0 -9 5 -15 11 -13 6 2 11 8 11 13 0 5 -5 11 -11 13 -6 2
-11 -4 -11 -13z"/>
<path d="M6910 6090 c0 -5 5 -10 10 -10 6 0 10 5 10 10 0 6 -4 10 -10 10 -5 0
-10 -4 -10 -10z"/>
<path d="M6715 5842 c-71 -37 -165 -87 -208 -110 -42 -23 -81 -42 -86 -42 -5
0 -28 -12 -51 -27 -23 -16 -45 -28 -49 -29 -25 -3 -61 -18 -61 -25 0 -5 -7 -9
-15 -9 -8 0 -15 -5 -15 -11 0 -6 -7 -9 -15 -6 -8 4 -17 2 -20 -3 -4 -6 -21
-10 -40 -10 -24 0 -39 -7 -53 -25 -11 -14 -25 -25 -32 -25 -7 0 -18 -7 -24
-15 -6 -8 -20 -16 -31 -18 -11 -1 -26 -6 -33 -11 -8 -5 -51 -5 -95 -1 -45 4
-79 4 -76 1 3 -4 56 -11 117 -17 107 -11 112 -10 141 10 17 12 56 33 88 47 32
14 83 41 113 59 66 40 130 77 185 106 95 51 381 213 390 221 17 15 1 8 -130
-60z"/>
<path d="M5605 5500 c40 -9 112 -13 104 -6 -2 2 -35 6 -74 9 -54 4 -61 4 -30
-3z"/>
<path d="M1281 4869 c-1 -9 -7 -22 -15 -29 -8 -6 -17 -21 -19 -33 -3 -16 -5
-13 -6 9 0 18 -8 34 -16 38 -11 4 -107 -39 -133 -60 -2 -1 12 -2 31 -1 18 0
48 -5 66 -12 29 -13 31 -17 25 -45 -3 -17 -11 -35 -17 -41 -7 -7 -8 -5 -4 7 5
14 -6 11 -51 -14 -66 -37 -139 -85 -146 -96 -6 -10 -27 -132 -31 -174 -2 -31
-31 -68 -52 -68 -10 0 -12 -9 -8 -33 4 -18 -1 -73 -9 -122 -9 -50 -16 -127
-16 -173 0 -139 -17 -216 -70 -323 l-49 -96 19 -84 c10 -46 28 -111 40 -144
15 -44 19 -71 14 -103 -4 -28 -9 -39 -15 -31 -4 7 -5 17 -3 21 3 4 -2 20 -10
35 -8 16 -17 40 -20 54 -3 15 -35 54 -74 90 -50 48 -81 68 -122 81 -177 56
-333 61 -537 16 l-53 -11 0 -1484 c0 -982 3 -1483 10 -1483 6 0 10 -5 10 -11
0 -21 70 -157 97 -190 15 -17 36 -50 48 -73 11 -23 36 -65 54 -94 35 -56 45
-59 102 -37 10 4 20 -6 33 -32 l19 -38 9 26 c6 19 22 30 66 45 l57 19 0 47 c0
36 6 53 28 77 15 17 27 37 27 44 0 20 54 80 112 124 62 47 162 74 182 49 6 -7
24 -17 40 -20 23 -6 27 -9 16 -16 -12 -7 -12 -12 -3 -21 10 -10 17 -7 33 14
25 32 69 36 89 8 11 -15 17 -16 37 -7 13 6 24 18 24 27 0 9 15 28 34 42 18 15
37 38 40 52 4 14 13 25 21 25 8 0 15 5 15 10 0 6 4 10 9 10 12 0 98 80 86 81
-20 1 31 18 57 18 17 1 29 8 33 21 3 11 15 25 26 30 15 9 26 5 54 -17 19 -15
35 -34 35 -40 0 -7 8 -13 18 -13 12 0 29 18 46 50 15 27 36 54 46 60 26 14 67
13 72 -2 3 -8 14 -3 30 15 14 15 30 27 37 27 6 0 11 8 11 18 0 22 42 47 64 39
8 -3 17 -16 20 -29 2 -13 3 1 2 30 l-3 52 36 0 c26 0 40 6 49 21 8 13 19 18
29 15 9 -4 24 1 35 10 10 10 21 14 25 10 4 -4 15 13 24 36 9 24 23 43 31 43 9
0 22 6 30 13 8 6 17 10 20 7 3 -3 13 4 22 14 13 15 26 18 52 14 38 -6 68 11
59 34 -3 8 2 24 10 36 20 29 19 58 -3 63 -22 6 -48 53 -44 81 3 23 39 37 66
27 9 -3 16 -2 16 3 0 11 -147 93 -166 93 -7 0 -15 4 -19 9 -3 5 -42 29 -88 53
-45 25 -133 77 -195 118 -96 63 -110 75 -100 88 11 13 10 15 -5 9 -26 -10 -67
2 -67 19 0 8 -9 14 -20 14 -19 0 -75 33 -105 63 -8 9 -29 24 -45 34 -17 9 -30
23 -30 30 0 7 -4 13 -10 13 -5 0 -10 7 -10 15 0 8 -8 15 -18 15 -10 0 -27 10
-38 23 -43 50 -99 133 -99 147 -1 29 -29 105 -42 113 -7 4 -10 14 -7 22 4 9 0
15 -8 15 -8 0 -34 34 -59 75 -69 119 -78 138 -79 172 0 17 -5 35 -10 38 -8 5
-8 11 -1 19 19 22 9 56 -16 56 -26 0 -28 6 -9 39 12 21 11 26 -5 42 -12 12
-19 33 -19 59 0 22 -4 40 -10 40 -5 0 -12 11 -16 24 -3 14 -13 27 -21 30 -12
5 -14 17 -8 66 5 39 3 60 -3 60 -6 0 -13 -10 -15 -22 -3 -17 -5 -15 -6 8 0 17
-7 47 -15 65 -7 19 -11 49 -9 67 3 18 1 32 -5 32 -5 0 -12 17 -16 39 -3 21
-12 43 -19 50 -10 8 -12 25 -6 68 4 32 10 110 14 173 3 63 12 142 19 175 8 33
17 89 21 125 7 64 30 161 58 250 49 153 207 503 207 457 0 -14 4 -28 9 -31 16
-10 32 22 36 75 3 39 2 47 -4 29 -19 -53 -11 97 8 159 10 34 17 61 15 61 -3 0
3 14 11 31 9 17 14 36 11 42 -2 7 -5 5 -5 -4z m-54 -151 c-3 -8 -6 -5 -6 6 -1
11 2 17 5 13 3 -3 4 -12 1 -19z m-101 -87 c-19 -20 -24 -30 -14 -33 17 -6 -13
-38 -36 -38 -31 0 -24 19 20 59 53 47 71 54 30 12z m95 -112 c-5 -13 -10 -19
-10 -12 -1 15 10 45 15 40 3 -2 0 -15 -5 -28z m-824 -1015 c-3 -3 -12 -4 -19
-1 -8 3 -5 6 6 6 11 1 17 -2 13 -5z m-158 -58 c-2 -2 -15 -7 -29 -10 l-25 -7
25 15 c21 12 42 14 29 2z m-70 -42 c-6 -8 -19 -14 -28 -14 -14 1 -14 2 2 11 9
6 15 14 12 20 -3 5 1 6 10 3 12 -5 13 -9 4 -20z m406 -24 c-3 -5 -10 -10 -16
-10 -5 0 -9 5 -9 10 0 6 7 10 16 10 8 0 12 -4 9 -10z m-203 -249 c-8 -4 -13
-12 -12 -17 1 -5 -4 -10 -11 -13 -7 -2 -9 1 -5 8 5 7 -3 11 -21 11 -22 0 -25
2 -13 10 8 5 29 10 45 10 20 0 26 -3 17 -9z m35 -16 c0 -8 -4 -12 -9 -9 -5 3
-6 10 -3 15 9 13 12 11 12 -6z m143 -111 c0 -12 -34 -33 -53 -34 -10 0 -16 -4
-13 -9 6 -9 -15 -21 -35 -21 -25 0 15 40 46 46 19 3 35 10 35 15 0 5 5 9 10 9
6 0 10 -3 10 -6z m180 -88 c0 -11 -19 -15 -25 -6 -3 5 1 10 9 10 9 0 16 -2 16
-4z m-285 -46 c-3 -5 -11 -10 -16 -10 -6 0 -7 5 -4 10 3 6 11 10 16 10 6 0 7
-4 4 -10z m-45 -29 c0 -10 -24 -21 -43 -21 -7 0 -3 7 7 15 22 17 36 19 36 6z
m390 -691 c-19 -11 -39 -19 -45 -19 -5 0 6 8 25 19 19 11 40 19 45 19 6 0 -6
-8 -25 -19z m-60 -25 c0 -6 -56 -35 -67 -35 -4 1 8 9 27 20 39 22 40 22 40 15z
m-81 -40 c-9 -9 -229 -114 -229 -110 0 6 212 114 224 114 5 1 7 -1 5 -4z
m-259 -130 c-14 -8 -29 -14 -35 -14 -5 0 1 6 15 14 14 8 30 14 35 14 6 0 -1
-6 -15 -14z m-50 -19 c0 -2 -7 -7 -16 -10 -8 -3 -12 -2 -9 4 6 10 25 14 25 6z
m-50 -26 c-8 -5 -19 -10 -25 -10 -5 0 -3 5 5 10 8 5 20 10 25 10 6 0 3 -5 -5
-10z m150 -1736 c0 -8 -7 -14 -15 -14 -15 0 -21 21 -9 33 10 9 24 -2 24 -19z"/>
<path d="M1015 4760 c-3 -6 1 -7 9 -4 18 7 21 14 7 14 -6 0 -13 -4 -16 -10z"/>
<path d="M1331 4724 c0 -11 3 -14 6 -6 3 7 2 16 -1 19 -3 4 -6 -2 -5 -13z"/>
<path d="M3786 4479 c-11 -10 -17 -19 -13 -19 14 0 57 24 57 32 0 14 -24 8
-44 -13z"/>
<path d="M1212 4420 c0 -14 2 -19 5 -12 2 6 2 18 0 25 -3 6 -5 1 -5 -13z"/>
<path d="M1280 4403 c0 -17 -4 -34 -9 -37 -5 -3 -7 -15 -4 -27 7 -26 20 -13
26 26 3 21 4 15 6 -19 1 -38 4 -47 16 -42 8 3 15 0 15 -6 0 -11 29 -37 43 -38
12 0 8 105 -5 118 -20 20 -28 14 -28 -23 0 -19 -5 -35 -11 -35 -8 0 -9 13 -5
40 5 33 3 42 -11 47 -10 4 -21 11 -25 17 -4 6 -8 -3 -8 -21z m90 -75 c0 -23
-3 -29 -9 -19 -8 12 -4 51 5 51 2 0 4 -15 4 -32z"/>
<path d="M1406 4323 c-14 -49 -18 -93 -7 -93 6 0 11 16 11 35 0 19 5 35 11 35
6 0 9 -16 8 -40 -2 -21 0 -42 4 -46 4 -4 7 9 7 29 0 57 19 44 22 -15 2 -44 6
-53 21 -50 11 2 21 -6 27 -23 5 -14 16 -25 24 -25 7 0 16 -6 19 -14 3 -7 20
-24 38 -37 l32 -23 -5 35 c-4 19 -3 54 2 77 8 47 3 92 -12 92 -5 0 -6 -9 -3
-20 4 -11 3 -45 0 -75 -6 -45 -10 -53 -21 -44 -7 6 -16 32 -20 57 -7 53 -20
82 -35 82 -7 0 -9 -18 -5 -52 6 -50 6 -52 -8 -28 -9 14 -15 39 -16 57 0 38 -9
63 -22 63 -5 0 -23 9 -38 20 -27 19 -29 19 -34 3z m84 -83 c0 -16 -4 -30 -10
-30 -11 0 -14 43 -3 53 11 12 13 8 13 -23z"/>
<path d="M6595 4333 c55 -6 61 -16 28 -48 -27 -26 -26 -26 19 4 70 46 68 51
-14 49 -45 -1 -58 -3 -33 -5z"/>
<path d="M6606 4311 c-4 -5 3 -7 14 -4 23 6 26 13 6 13 -8 0 -17 -4 -20 -9z"/>
<path d="M2250 1380 c0 -5 7 -10 16 -10 8 0 12 5 9 10 -3 6 -10 10 -16 10 -5
0 -9 -4 -9 -10z"/>
<path d="M7216 1245 c-21 -19 -33 -35 -27 -35 6 0 28 16 49 35 20 19 33 34 27
34 -5 1 -27 -15 -49 -34z"/>
<path d="M7045 1124 c-83 -46 -161 -84 -174 -84 -9 0 -160 -153 -161 -162 0
-5 0 -13 0 -19 0 -6 -7 -8 -16 -5 -11 4 -36 -10 -73 -41 -31 -26 -58 -50 -61
-53 -3 -4 -26 -21 -52 -38 -57 -39 -78 -67 -78 -104 0 -17 -5 -28 -13 -28 -18
0 -187 -268 -224 -355 -16 -38 -55 -106 -86 -150 l-57 -80 557 -3 c306 -1 558
-1 560 1 2 2 -8 24 -21 48 -27 48 -76 207 -76 245 0 18 -6 24 -22 25 l-23 0
23 16 c25 18 29 43 7 43 -21 0 -19 12 5 33 24 20 26 37 4 37 -9 0 -14 6 -11
13 2 6 10 12 18 12 8 0 22 14 33 30 21 33 57 76 122 147 42 44 54 68 35 68 -4
0 -11 28 -15 63 -3 34 -12 67 -19 72 -8 6 -17 22 -21 38 -3 15 -13 27 -22 27
-12 0 -15 6 -11 21 3 12 1 32 -5 45 -9 19 -14 21 -25 12 -7 -6 -17 -8 -21 -4
-4 4 1 14 12 21 10 8 16 18 13 23 -9 14 -11 85 -3 110 11 32 -7 28 -99 -24z
m-51 -59 c-6 -16 -24 -21 -24 -7 0 11 11 22 21 22 5 0 6 -7 3 -15z m143 -127
c-3 -8 -6 -5 -6 6 -1 11 2 17 5 13 3 -3 4 -12 1 -19z m-118 -74 c-14 -18 -24
-11 -15 11 3 9 11 13 16 10 8 -5 7 -11 -1 -21z m165 11 c-6 -16 -24 -21 -24
-7 0 11 11 22 21 22 5 0 6 -7 3 -15z m-420 -10 c-6 -16 -24 -21 -24 -7 0 11
11 22 21 22 5 0 6 -7 3 -15z m192 -72 c-10 -10 -19 5 -10 18 6 11 8 11 12 0 2
-7 1 -15 -2 -18z m62 15 c-2 -6 -10 -14 -16 -16 -7 -2 -10 2 -6 12 7 18 28 22
22 4z m162 3 c0 -12 -20 -25 -27 -18 -7 7 6 27 18 27 5 0 9 -4 9 -9z m48 -3
c-2 -6 -10 -14 -16 -16 -7 -2 -10 2 -6 12 7 18 28 22 22 4z m-528 -8 c0 -5 -5
-10 -11 -10 -5 0 -7 5 -4 10 3 6 8 10 11 10 2 0 4 -4 4 -10z m55 0 c-3 -5 -11
-10 -16 -10 -6 0 -7 5 -4 10 3 6 11 10 16 10 6 0 7 -4 4 -10z m406 -73 c-8 -8
-11 -7 -11 4 0 20 13 34 18 19 3 -7 -1 -17 -7 -23z m58 7 c-14 -18 -24 -11
-15 11 3 9 11 13 16 10 8 -5 7 -11 -1 -21z m-319 7 c0 -6 -4 -13 -10 -16 -5
-3 -10 1 -10 9 0 9 5 16 10 16 6 0 10 -4 10 -9z m54 -6 c-6 -16 -24 -21 -24
-7 0 11 11 22 21 22 5 0 6 -7 3 -15z m50 0 c-6 -16 -24 -21 -24 -7 0 11 11 22
21 22 5 0 6 -7 3 -15z m-114 -60 c0 -8 -4 -15 -10 -15 -5 0 -7 7 -4 15 4 8 8
15 10 15 2 0 4 -7 4 -15z m104 -9 c-6 -16 -24 -23 -24 -8 0 10 22 33 27 28 2
-2 1 -11 -3 -20z m226 15 c0 -5 -7 -14 -15 -21 -12 -10 -15 -10 -15 2 0 8 3
18 7 21 9 10 23 9 23 -2z m-280 -16 c-7 -9 -15 -13 -17 -11 -7 7 7 26 19 26 6
0 6 -6 -2 -15z m97 -7 c-3 -8 -6 -5 -6 6 -1 11 2 17 5 13 3 -3 4 -12 1 -19z
m-565 -60 c-7 -7 -12 -8 -12 -2 0 14 12 26 19 19 2 -3 -1 -11 -7 -17z m466 10
c-2 -6 -10 -14 -16 -16 -7 -2 -10 2 -6 12 7 18 28 22 22 4z m47 -7 c-3 -6 -11
-11 -17 -11 -6 0 -6 6 2 15 14 17 26 13 15 -4z m51 -8 c-10 -10 -19 5 -10 18
6 11 8 11 12 0 2 -7 1 -15 -2 -18z m-516 7 c0 -5 -5 -10 -11 -10 -5 0 -7 5 -4
10 3 6 8 10 11 10 2 0 4 -4 4 -10z m-50 -59 c0 -6 -4 -13 -10 -16 -5 -3 -10 1
-10 9 0 9 5 16 10 16 6 0 10 -4 10 -9z m50 0 c0 -6 -4 -13 -10 -16 -5 -3 -10
1 -10 9 0 9 5 16 10 16 6 0 10 -4 10 -9z m195 -10 c-3 -6 -11 -11 -17 -11 -6
0 -6 6 2 15 14 17 26 13 15 -4z m47 -3 c-7 -7 -12 -8 -12 -2 0 14 12 26 19 19
2 -3 -1 -11 -7 -17z m168 13 c0 -12 -20 -25 -27 -18 -7 7 6 27 18 27 5 0 9 -4
9 -9z m48 -3 c-2 -6 -10 -14 -16 -16 -7 -2 -10 2 -6 12 7 18 28 22 22 4z m52
-3 c-7 -9 -15 -13 -17 -11 -7 7 7 26 19 26 6 0 6 -6 -2 -15z m-69 -78 c-8 -8
-11 -7 -11 4 0 20 13 34 18 19 3 -7 -1 -17 -7 -23z m-311 8 c-7 -9 -15 -13
-17 -11 -7 7 7 26 19 26 6 0 6 -6 -2 -15z m54 0 c-4 -8 -10 -15 -15 -15 -4 0
-6 7 -3 15 4 8 10 15 15 15 4 0 6 -7 3 -15z m54 3 c-2 -6 -10 -14 -16 -16 -7
-2 -10 2 -6 12 7 18 28 22 22 4z m156 -3 c-4 -8 -8 -15 -10 -15 -2 0 -4 7 -4
15 0 8 4 15 10 15 5 0 7 -7 4 -15z m106 0 c-7 -9 -15 -13 -17 -11 -7 7 7 26
19 26 6 0 6 -6 -2 -15z m-378 -67 c-7 -7 -12 -8 -12 -2 0 14 12 26 19 19 2 -3
-1 -11 -7 -17z m53 2 c-3 -5 -11 -10 -16 -10 -6 0 -7 5 -4 10 3 6 11 10 16 10
6 0 7 -4 4 -10z m55 6 c0 -3 -4 -8 -10 -11 -5 -3 -10 -1 -10 4 0 6 5 11 10 11
6 0 10 -2 10 -4z m40 -12 c0 -8 -5 -12 -10 -9 -6 4 -8 11 -5 16 9 14 15 11 15
-7z m170 8 c0 -13 -12 -22 -22 -16 -10 6 -1 24 13 24 5 0 9 -4 9 -8z m54 -7
c-6 -16 -24 -21 -24 -7 0 11 11 22 21 22 5 0 6 -7 3 -15z m-324 -54 c0 -5 -6
-14 -14 -20 -12 -10 -13 -8 -9 8 5 21 23 30 23 12z m45 -10 c-3 -6 -11 -11
-17 -11 -6 0 -6 6 2 15 14 17 26 13 15 -4z m47 -3 c-7 -7 -12 -8 -12 -2 0 14
12 26 19 19 2 -3 -1 -11 -7 -17z m-112 -63 c-7 -9 -15 -13 -17 -11 -7 7 7 26
19 26 6 0 6 -6 -2 -15z m55 -4 c-3 -6 -11 -11 -17 -11 -6 0 -6 6 2 15 14 17
26 13 15 -4z m47 -3 c-7 -7 -12 -8 -12 -2 0 14 12 26 19 19 2 -3 -1 -11 -7
-17z m-112 -58 c0 -5 -5 -10 -11 -10 -5 0 -7 5 -4 10 3 6 8 10 11 10 2 0 4 -4
4 -10z m54 -5 c-6 -16 -24 -21 -24 -7 0 11 11 22 21 22 5 0 6 -7 3 -15z m54 3
c-2 -6 -10 -14 -16 -16 -7 -2 -10 2 -6 12 7 18 28 22 22 4z m47 -7 c-3 -6 -11
-11 -17 -11 -6 0 -6 6 2 15 14 17 26 13 15 -4z m-123 -73 c-7 -7 -12 -8 -12
-2 0 14 12 26 19 19 2 -3 -1 -11 -7 -17z m58 7 c-7 -9 -15 -13 -17 -11 -7 7 7
26 19 26 6 0 6 -6 -2 -15z m52 -7 c-7 -7 -12 -8 -12 -2 0 14 12 26 19 19 2 -3
-1 -11 -7 -17z m54 -5 c-10 -10 -19 5 -10 18 6 11 8 11 12 0 2 -7 1 -15 -2
-18z m59 7 c-3 -5 -11 -10 -16 -10 -6 0 -7 5 -4 10 3 6 11 10 16 10 6 0 7 -4
4 -10z m-117 -62 c-2 -6 -10 -14 -16 -16 -7 -2 -10 2 -6 12 7 18 28 22 22 4z
m48 -15 c-10 -10 -19 5 -10 18 6 11 8 11 12 0 2 -7 1 -15 -2 -18z m54 2 c-7
-9 -15 -13 -17 -11 -7 7 7 26 19 26 6 0 6 -6 -2 -15z"/>
<path d="M2675 687 c0 -47 25 -103 43 -99 7 1 12 -7 12 -18 0 -10 12 -36 26
-57 l27 -38 -6 60 c-4 37 -12 64 -22 71 -8 6 -15 15 -15 19 0 4 -11 20 -25 37
-14 16 -25 36 -25 43 0 8 -3 16 -7 18 -5 3 -8 -14 -8 -36z"/>
<path d="M2101 562 c-21 -25 -23 -34 -17 -122 3 -52 11 -122 17 -154 12 -57
11 -60 -9 -74 -27 -18 -29 -37 -3 -23 10 6 21 7 25 4 11 -11 6 -33 -7 -33 -10
0 -11 -15 -6 -67 5 -38 8 -74 8 -80 1 -9 19 -13 57 -13 l57 0 -7 67 c-4 37
-11 72 -15 78 -14 18 -41 112 -41 142 0 16 -7 38 -15 49 -8 10 -15 35 -15 55
0 19 -5 40 -11 46 -7 7 -7 30 2 77 6 37 9 69 7 71 -2 3 -15 -8 -27 -23z"/>
<path d="M2785 420 c-3 -5 -1 -18 4 -27 9 -16 10 -14 11 10 0 28 -5 34 -15 17z"/>
<path d="M2601 344 c0 -11 3 -14 6 -6 3 7 2 16 -1 19 -3 4 -6 -2 -5 -13z"/>
<path d="M2590 309 c0 -5 5 -7 10 -4 6 3 10 8 10 11 0 2 -4 4 -10 4 -5 0 -10
-5 -10 -11z"/>
<path d="M1514 260 c-21 -8 -23 -36 -7 -80 17 -43 17 -64 4 -115 -17 -64 -16
-65 39 -65 47 0 50 2 46 23 -3 12 -8 64 -11 116 -8 126 -18 143 -71 121z"/>
<path d="M2060 125 c0 -8 5 -15 10 -15 6 0 10 7 10 15 0 8 -4 15 -10 15 -5 0
-10 -7 -10 -15z"/>
<path d="M967 43 c-4 -3 -7 -15 -7 -25 0 -14 8 -18 35 -18 39 0 44 9 17 33
-20 18 -34 21 -45 10z"/>
<path d="M2081 14 c0 -11 3 -14 6 -6 3 7 2 16 -1 19 -3 4 -6 -2 -5 -13z"/>
</g>
</svg>
